<svg xmlns="http://www.w3.org/2000/svg" xmlns:xlink="http://www.w3.org/1999/xlink" contentStyleType="text/css" data-diagram-type="CLASS" height="435px" preserveAspectRatio="none" style="width:1532px;height:435px;background:#FFFFFF;" version="1.1" viewBox="0 0 1532 435" width="1532px" zoomAndPan="magnify"><defs/><g><!--class a1--><g class="entity" data-entity="a1" data-source-line="5" data-uid="ent0002" id="entity_a1"><rect fill="#F1F1F1" height="32" rx="2.5" ry="2.5" style="stroke:#181818;stroke-width:0.5;" width="239.6006" x="721.48" y="27.3"/><ellipse cx="736.48" cy="43.3" fill="#A9DCDF" rx="11" ry="11" style="stroke:#181818;stroke-width:1;"/><path d="M736.5894,38.6437 L735.4331,43.7219 L737.7613,43.7219 L736.5894,38.6437 Z M735.105,36.4094 L738.0894,36.4094 L741.4488,48.8 L738.9956,48.8 L738.23,45.7375 L734.9488,45.7375 L734.1988,48.8 L731.7613,48.8 L735.105,36.4094 Z " fill="#000000"/><text fill="#000000" font-family="sans-serif" font-size="14" font-style="italic" lengthAdjust="spacing" textLength="207.6006" x="750.48" y="48.1467">AbstractArray{&lt;:Polynomial}</text></g><!--class PolynomialBasis--><g class="entity" data-entity="PolynomialBasis" data-source-line="6" data-uid="ent0003" id="entity_PolynomialBasis"><rect fill="#F1F1F1" height="72.5938" rx="2.5" ry="2.5" style="stroke:#181818;stroke-width:0.5;" width="145.2783" x="521.64" y="7"/><ellipse cx="536.64" cy="23" fill="#A9DCDF" rx="11" ry="11" style="stroke:#181818;stroke-width:1;"/><path d="M536.7494,18.3438 L535.5931,23.4219 L537.9213,23.4219 L536.7494,18.3438 Z M535.265,16.1094 L538.2494,16.1094 L541.6088,28.5 L539.1556,28.5 L538.39,25.4375 L535.1088,25.4375 L534.3588,28.5 L531.9213,28.5 L535.265,16.1094 Z " fill="#000000"/><text fill="#000000" font-family="sans-serif" font-size="14" font-style="italic" lengthAdjust="spacing" textLength="113.2783" x="550.64" y="27.8467">PolynomialBasis</text><line style="stroke:#181818;stroke-width:0.5;" x1="522.64" x2="665.9183" y1="39" y2="39"/><ellipse cx="532.64" cy="52.6484" fill="none" rx="3" ry="3" style="stroke:#038048;stroke-width:1;"/><text fill="#000000" font-family="sans-serif" font-size="14" lengthAdjust="spacing" textLength="67.5664" x="541.64" y="55.9951">get_order</text><ellipse cx="532.64" cy="68.9453" fill="none" rx="3" ry="3" style="stroke:#038048;stroke-width:1;"/><text fill="#000000" font-family="sans-serif" font-size="14" lengthAdjust="spacing" textLength="81.6348" x="541.64" y="72.292">return_type</text></g><polygon fill="none" points="596.7828,79.5938,605.1424,99.0647,591.1756,100.028" style="stroke:#181818;stroke-width:1;"/><line style="stroke:#181818;stroke-width:1;" x1="598.159" x2="598.28" y1="99.5463" y2="101.3"/><line style="stroke:#181818;stroke-width:1;" x1="666.9183" x2="687.39" y1="43.2993" y2="43.3"/><!--class CartProdPolyBasis--><g class="entity" data-entity="CartProdPolyBasis" data-source-line="14" data-uid="ent0006" id="entity_CartProdPolyBasis"><rect fill="#F1F1F1" height="72.5938" rx="2.5" ry="2.5" style="stroke:#181818;stroke-width:0.5;" width="159.0938" x="443.73" y="275.89"/><ellipse cx="458.73" cy="291.89" fill="#F1F1F1" rx="11" ry="11" style="stroke:#181818;stroke-width:1;"/><path d="M458.2144,292.4525 Q456.355,291.7494 455.6988,290.9838 Q455.0581,290.2025 455.0581,288.89 Q455.0581,287.2025 456.1363,286.2338 Q457.2144,285.265 459.0894,285.265 Q459.9488,285.265 460.7925,285.4681 Q461.6519,285.6556 462.4956,286.0463 L462.4956,288.4369 Q461.7144,287.8744 460.8863,287.5931 Q460.0738,287.2963 459.2769,287.2963 Q458.4019,287.2963 457.9175,287.6556 Q457.4488,288.015 457.4488,288.6713 Q457.4488,289.1869 457.7925,289.5306 Q458.1363,289.8588 459.23,290.265 L460.2925,290.6713 Q461.7769,291.2181 462.48,292.1244 Q463.1988,293.0306 463.1988,294.4056 Q463.1988,296.2806 462.0894,297.2025 Q460.98,298.1244 458.73,298.1244 Q457.8081,298.1244 456.8863,297.9056 Q455.9644,297.6869 455.105,297.265 L455.105,294.7338 Q456.0738,295.4213 456.9956,295.765 Q457.9175,296.1088 458.8081,296.1088 Q459.7144,296.1088 460.2144,295.7025 Q460.7144,295.2806 460.7144,294.5463 Q460.7144,293.9838 460.3706,293.5775 Q460.0425,293.1556 459.4175,292.9056 L458.2144,292.4525 Z " fill="#000000"/><text fill="#000000" font-family="sans-serif" font-size="14" lengthAdjust="spacing" textLength="127.0938" x="472.73" y="296.7367">CartProdPolyBasis</text><line style="stroke:#181818;stroke-width:0.5;" x1="444.73" x2="601.8238" y1="307.89" y2="307.89"/><ellipse cx="454.73" cy="321.5384" fill="none" rx="3" ry="3" style="stroke:#038048;stroke-width:1;"/><text fill="#000000" font-family="sans-serif" font-size="14" lengthAdjust="spacing" textLength="103.4824" x="463.73" y="324.8851">get_exponents</text><ellipse cx="454.73" cy="337.8353" fill="none" rx="3" ry="3" style="stroke:#038048;stroke-width:1;"/><text fill="#000000" font-family="sans-serif" font-size="14" lengthAdjust="spacing" textLength="74.8604" x="463.73" y="341.182">get_orders</text></g><!--class CompWiseTensorPolyBasis--><g class="entity" data-entity="CompWiseTensorPolyBasis" data-source-line="18" data-uid="ent0007" id="entity_CompWiseTensorPolyBasis"><rect fill="#F1F1F1" height="32" rx="2.5" ry="2.5" style="stroke:#181818;stroke-width:0.5;" width="220.002" x="1141.28" y="296.19"/><ellipse cx="1156.28" cy="312.19" fill="#F1F1F1" rx="11" ry="11" style="stroke:#181818;stroke-width:1;"/><path d="M1155.7644,312.7525 Q1153.905,312.0494 1153.2488,311.2837 Q1152.6081,310.5025 1152.6081,309.19 Q1152.6081,307.5025 1153.6863,306.5337 Q1154.7644,305.565 1156.6394,305.565 Q1157.4988,305.565 1158.3425,305.7681 Q1159.2019,305.9556 1160.0456,306.3462 L1160.0456,308.7369 Q1159.2644,308.1744 1158.4363,307.8931 Q1157.6238,307.5962 1156.8269,307.5962 Q1155.9519,307.5962 1155.4675,307.9556 Q1154.9988,308.315 1154.9988,308.9712 Q1154.9988,309.4869 1155.3425,309.8306 Q1155.6863,310.1587 1156.78,310.565 L1157.8425,310.9712 Q1159.3269,311.5181 1160.03,312.4244 Q1160.7488,313.3306 1160.7488,314.7056 Q1160.7488,316.5806 1159.6394,317.5025 Q1158.53,318.4244 1156.28,318.4244 Q1155.3581,318.4244 1154.4363,318.2056 Q1153.5144,317.9869 1152.655,317.565 L1152.655,315.0337 Q1153.6238,315.7212 1154.5456,316.065 Q1155.4675,316.4087 1156.3581,316.4087 Q1157.2644,316.4087 1157.7644,316.0025 Q1158.2644,315.5806 1158.2644,314.8462 Q1158.2644,314.2837 1157.9206,313.8775 Q1157.5925,313.4556 1156.9675,313.2056 L1155.7644,312.7525 Z " fill="#000000"/><text fill="#000000" font-family="sans-serif" font-size="14" lengthAdjust="spacing" textLength="188.002" x="1170.28" y="317.0367">CompWiseTensorPolyBasis</text></g><!--class RaviartThomasPolyBasis--><g class="entity" data-entity="RaviartThomasPolyBasis" data-source-line="19" data-uid="ent0008" id="entity_RaviartThomasPolyBasis"><rect fill="#F1F1F1" height="32" rx="2.5" ry="2.5" style="stroke:#181818;stroke-width:0.5;" width="203.6504" x="637.45" y="296.19"/><ellipse cx="652.45" cy="312.19" fill="#F1F1F1" rx="11" ry="11" style="stroke:#181818;stroke-width:1;"/><path d="M651.9344,312.7525 Q650.075,312.0494 649.4188,311.2837 Q648.7781,310.5025 648.7781,309.19 Q648.7781,307.5025 649.8563,306.5337 Q650.9344,305.565 652.8094,305.565 Q653.6688,305.565 654.5125,305.7681 Q655.3719,305.9556 656.2156,306.3462 L656.2156,308.7369 Q655.4344,308.1744 654.6063,307.8931 Q653.7938,307.5962 652.9969,307.5962 Q652.1219,307.5962 651.6375,307.9556 Q651.1688,308.315 651.1688,308.9712 Q651.1688,309.4869 651.5125,309.8306 Q651.8563,310.1587 652.95,310.565 L654.0125,310.9712 Q655.4969,311.5181 656.2,312.4244 Q656.9188,313.3306 656.9188,314.7056 Q656.9188,316.5806 655.8094,317.5025 Q654.7,318.4244 652.45,318.4244 Q651.5281,318.4244 650.6063,318.2056 Q649.6844,317.9869 648.825,317.565 L648.825,315.0337 Q649.7938,315.7212 650.7156,316.065 Q651.6375,316.4087 652.5281,316.4087 Q653.4344,316.4087 653.9344,316.0025 Q654.4344,315.5806 654.4344,314.8462 Q654.4344,314.2837 654.0906,313.8775 Q653.7625,313.4556 653.1375,313.2056 L651.9344,312.7525 Z " fill="#000000"/><text fill="#000000" font-family="sans-serif" font-size="14" lengthAdjust="spacing" textLength="171.6504" x="666.45" y="317.0367">RaviartThomasPolyBasis</text></g><!--class NedelecPolyBasisOnSimplex--><g class="entity" data-entity="NedelecPolyBasisOnSimplex" data-source-line="20" data-uid="ent0009" id="entity_NedelecPolyBasisOnSimplex"><rect fill="#F1F1F1" height="32" rx="2.5" ry="2.5" style="stroke:#181818;stroke-width:0.5;" width="230.6113" x="875.97" y="296.19"/><ellipse cx="890.97" cy="312.19" fill="#F1F1F1" rx="11" ry="11" style="stroke:#181818;stroke-width:1;"/><path d="M890.4544,312.7525 Q888.595,312.0494 887.9388,311.2837 Q887.2981,310.5025 887.2981,309.19 Q887.2981,307.5025 888.3763,306.5337 Q889.4544,305.565 891.3294,305.565 Q892.1888,305.565 893.0325,305.7681 Q893.8919,305.9556 894.7356,306.3462 L894.7356,308.7369 Q893.9544,308.1744 893.1263,307.8931 Q892.3138,307.5962 891.5169,307.5962 Q890.6419,307.5962 890.1575,307.9556 Q889.6888,308.315 889.6888,308.9712 Q889.6888,309.4869 890.0325,309.8306 Q890.3763,310.1587 891.47,310.565 L892.5325,310.9712 Q894.0169,311.5181 894.72,312.4244 Q895.4388,313.3306 895.4388,314.7056 Q895.4388,316.5806 894.3294,317.5025 Q893.22,318.4244 890.97,318.4244 Q890.0481,318.4244 889.1263,318.2056 Q888.2044,317.9869 887.345,317.565 L887.345,315.0337 Q888.3138,315.7212 889.2356,316.065 Q890.1575,316.4087 891.0481,316.4087 Q891.9544,316.4087 892.4544,316.0025 Q892.9544,315.5806 892.9544,314.8462 Q892.9544,314.2837 892.6106,313.8775 Q892.2825,313.4556 891.6575,313.2056 L890.4544,312.7525 Z " fill="#000000"/><text fill="#000000" font-family="sans-serif" font-size="14" lengthAdjust="spacing" textLength="198.6113" x="904.97" y="317.0367">NedelecPolyBasisOnSimplex</text></g><!--class BernsteinBasisOnSimplex--><g class="entity" data-entity="BernsteinBasisOnSimplex" data-source-line="21" data-uid="ent0010" id="entity_BernsteinBasisOnSimplex"><rect fill="#F1F1F1" height="56.2969" rx="2.5" ry="2.5" style="stroke:#181818;stroke-width:0.5;" width="211.6484" x="197.46" y="284.04"/><ellipse cx="212.46" cy="300.04" fill="#F1F1F1" rx="11" ry="11" style="stroke:#181818;stroke-width:1;"/><path d="M211.9444,300.6025 Q210.085,299.8994 209.4288,299.1337 Q208.7881,298.3525 208.7881,297.04 Q208.7881,295.3525 209.8663,294.3837 Q210.9444,293.415 212.8194,293.415 Q213.6788,293.415 214.5225,293.6181 Q215.3819,293.8056 216.2256,294.1962 L216.2256,296.5869 Q215.4444,296.0244 214.6163,295.7431 Q213.8038,295.4462 213.0069,295.4462 Q212.1319,295.4462 211.6475,295.8056 Q211.1788,296.165 211.1788,296.8212 Q211.1788,297.3369 211.5225,297.6806 Q211.8663,298.0087 212.96,298.415 L214.0225,298.8212 Q215.5069,299.3681 216.21,300.2744 Q216.9288,301.1806 216.9288,302.5556 Q216.9288,304.4306 215.8194,305.3525 Q214.71,306.2744 212.46,306.2744 Q211.5381,306.2744 210.6163,306.0556 Q209.6944,305.8369 208.835,305.415 L208.835,302.8837 Q209.8038,303.5712 210.7256,303.915 Q211.6475,304.2587 212.5381,304.2587 Q213.4444,304.2587 213.9444,303.8525 Q214.4444,303.4306 214.4444,302.6962 Q214.4444,302.1337 214.1006,301.7275 Q213.7725,301.3056 213.1475,301.0556 L211.9444,300.6025 Z " fill="#000000"/><text fill="#000000" font-family="sans-serif" font-size="14" lengthAdjust="spacing" textLength="179.6484" x="226.46" y="304.8867">BernsteinBasisOnSimplex</text><line style="stroke:#181818;stroke-width:0.5;" x1="198.46" x2="408.1084" y1="316.04" y2="316.04"/><ellipse cx="208.46" cy="329.6884" fill="none" rx="3" ry="3" style="stroke:#038048;stroke-width:1;"/><text fill="#000000" font-family="sans-serif" font-size="14" lengthAdjust="spacing" textLength="74.8604" x="217.46" y="333.0351">get_orders</text></g><!--class ModalC0Basis--><g class="entity" data-entity="ModalC0Basis" data-source-line="24" data-uid="ent0011" id="entity_ModalC0Basis"><rect fill="#F1F1F1" height="56.2969" rx="2.5" ry="2.5" style="stroke:#181818;stroke-width:0.5;" width="129.3438" x="1396.61" y="284.04"/><ellipse cx="1411.61" cy="300.04" fill="#F1F1F1" rx="11" ry="11" style="stroke:#181818;stroke-width:1;"/><path d="M1411.0944,300.6025 Q1409.235,299.8994 1408.5788,299.1337 Q1407.9381,298.3525 1407.9381,297.04 Q1407.9381,295.3525 1409.0163,294.3837 Q1410.0944,293.415 1411.9694,293.415 Q1412.8288,293.415 1413.6725,293.6181 Q1414.5319,293.8056 1415.3756,294.1962 L1415.3756,296.5869 Q1414.5944,296.0244 1413.7663,295.7431 Q1412.9538,295.4462 1412.1569,295.4462 Q1411.2819,295.4462 1410.7975,295.8056 Q1410.3288,296.165 1410.3288,296.8212 Q1410.3288,297.3369 1410.6725,297.6806 Q1411.0163,298.0087 1412.11,298.415 L1413.1725,298.8212 Q1414.6569,299.3681 1415.36,300.2744 Q1416.0788,301.1806 1416.0788,302.5556 Q1416.0788,304.4306 1414.9694,305.3525 Q1413.86,306.2744 1411.61,306.2744 Q1410.6881,306.2744 1409.7663,306.0556 Q1408.8444,305.8369 1407.985,305.415 L1407.985,302.8837 Q1408.9538,303.5712 1409.8756,303.915 Q1410.7975,304.2587 1411.6881,304.2587 Q1412.5944,304.2587 1413.0944,303.8525 Q1413.5944,303.4306 1413.5944,302.6962 Q1413.5944,302.1337 1413.2506,301.7275 Q1412.9225,301.3056 1412.2975,301.0556 L1411.0944,300.6025 Z " fill="#000000"/><text fill="#000000" font-family="sans-serif" font-size="14" lengthAdjust="spacing" textLength="97.3438" x="1425.61" y="304.8867">ModalC0Basis</text><line style="stroke:#181818;stroke-width:0.5;" x1="1397.61" x2="1524.9538" y1="316.04" y2="316.04"/><ellipse cx="1407.61" cy="329.6884" fill="none" rx="3" ry="3" style="stroke:#038048;stroke-width:1;"/><text fill="#000000" font-family="sans-serif" font-size="14" lengthAdjust="spacing" textLength="74.8604" x="1416.61" y="333.0351">get_orders</text></g><!--class BarycentricP?Basis--><g class="entity" data-entity="BarycentricP&#923;Basis" data-source-line="29" data-uid="ent0012" id="entity_BarycentricP&#923;Basis"><rect fill="#F1F1F1" height="56.2969" rx="2.5" ry="2.5" style="stroke:#181818;stroke-width:0.5;" width="166.9209" x="222.82" y="159.59"/><ellipse cx="237.82" cy="175.59" fill="#F1F1F1" rx="11" ry="11" style="stroke:#181818;stroke-width:1;"/><path d="M237.3044,176.1525 Q235.445,175.4494 234.7888,174.6837 Q234.1481,173.9025 234.1481,172.59 Q234.1481,170.9025 235.2263,169.9337 Q236.3044,168.965 238.1794,168.965 Q239.0388,168.965 239.8825,169.1681 Q240.7419,169.3556 241.5856,169.7462 L241.5856,172.1369 Q240.8044,171.5744 239.9763,171.2931 Q239.1638,170.9962 238.3669,170.9962 Q237.4919,170.9962 237.0075,171.3556 Q236.5388,171.715 236.5388,172.3712 Q236.5388,172.8869 236.8825,173.2306 Q237.2263,173.5587 238.32,173.965 L239.3825,174.3712 Q240.8669,174.9181 241.57,175.8244 Q242.2888,176.7306 242.2888,178.1056 Q242.2888,179.9806 241.1794,180.9025 Q240.07,181.8244 237.82,181.8244 Q236.8981,181.8244 235.9763,181.6056 Q235.0544,181.3869 234.195,180.965 L234.195,178.4337 Q235.1638,179.1212 236.0856,179.465 Q237.0075,179.8087 237.8981,179.8087 Q238.8044,179.8087 239.3044,179.4025 Q239.8044,178.9806 239.8044,178.2462 Q239.8044,177.6837 239.4606,177.2775 Q239.1325,176.8556 238.5075,176.6056 L237.3044,176.1525 Z " fill="#000000"/><text fill="#000000" font-family="sans-serif" font-size="14" lengthAdjust="spacing" textLength="134.9209" x="251.82" y="180.4367">BarycentricP&#923;Basis</text><line style="stroke:#181818;stroke-width:0.5;" x1="223.82" x2="388.7409" y1="191.59" y2="191.59"/><ellipse cx="233.82" cy="205.2384" fill="none" rx="3" ry="3" style="stroke:#038048;stroke-width:1;"/><text fill="#000000" font-family="sans-serif" font-size="14" lengthAdjust="spacing" textLength="89.0381" x="242.82" y="208.5851">print_indices</text></g><!--class BarycentricPm?Basis--><g class="entity" data-entity="BarycentricPm&#923;Basis" data-source-line="32" data-uid="ent0013" id="entity_BarycentricPm&#923;Basis"><rect fill="#F1F1F1" height="56.2969" rx="2.5" ry="2.5" style="stroke:#181818;stroke-width:0.5;" width="180.5586" x="7" y="159.59"/><ellipse cx="22" cy="175.59" fill="#F1F1F1" rx="11" ry="11" style="stroke:#181818;stroke-width:1;"/><path d="M21.4844,176.1525 Q19.625,175.4494 18.9688,174.6837 Q18.3281,173.9025 18.3281,172.59 Q18.3281,170.9025 19.4063,169.9337 Q20.4844,168.965 22.3594,168.965 Q23.2188,168.965 24.0625,169.1681 Q24.9219,169.3556 25.7656,169.7462 L25.7656,172.1369 Q24.9844,171.5744 24.1563,171.2931 Q23.3438,170.9962 22.5469,170.9962 Q21.6719,170.9962 21.1875,171.3556 Q20.7188,171.715 20.7188,172.3712 Q20.7188,172.8869 21.0625,173.2306 Q21.4063,173.5587 22.5,173.965 L23.5625,174.3712 Q25.0469,174.9181 25.75,175.8244 Q26.4688,176.7306 26.4688,178.1056 Q26.4688,179.9806 25.3594,180.9025 Q24.25,181.8244 22,181.8244 Q21.0781,181.8244 20.1563,181.6056 Q19.2344,181.3869 18.375,180.965 L18.375,178.4337 Q19.3438,179.1212 20.2656,179.465 Q21.1875,179.8087 22.0781,179.8087 Q22.9844,179.8087 23.4844,179.4025 Q23.9844,178.9806 23.9844,178.2462 Q23.9844,177.6837 23.6406,177.2775 Q23.3125,176.8556 22.6875,176.6056 L21.4844,176.1525 Z " fill="#000000"/><text fill="#000000" font-family="sans-serif" font-size="14" lengthAdjust="spacing" textLength="148.5586" x="36" y="180.4367">BarycentricPm&#923;Basis</text><line style="stroke:#181818;stroke-width:0.5;" x1="8" x2="186.5586" y1="191.59" y2="191.59"/><ellipse cx="18" cy="205.2384" fill="none" rx="3" ry="3" style="stroke:#038048;stroke-width:1;"/><text fill="#000000" font-family="sans-serif" font-size="14" lengthAdjust="spacing" textLength="89.0381" x="27" y="208.5851">print_indices</text></g><g class="entity" data-entity="m1" data-source-line="45" data-uid="ent0022" id="entity_m1"><rect fill="#F1F1F1" height="20.2969" rx="2.5" ry="2.5" style="stroke:#181818;stroke-width:0.5;" width="154.6494" x="445.95" y="408.48"/><text fill="#000000" font-family="sans-serif" font-size="14" lengthAdjust="spacing" textLength="140.6494" x="452.95" y="423.4751">(&lt;:Polynomial)Basis</text></g><g class="entity" data-entity="m2" data-source-line="46" data-uid="ent0023" id="entity_m2"><rect fill="#F1F1F1" height="20.2969" rx="2.5" ry="2.5" style="stroke:#181818;stroke-width:0.5;" width="129.0898" x="654.73" y="408.48"/><text fill="#000000" font-family="sans-serif" font-size="14" lengthAdjust="spacing" textLength="115.0898" x="661.73" y="423.4751">FEEC_poly_basis</text></g><!--link PolynomialBasis to a1--><g class="link" data-entity-1="PolynomialBasis" data-entity-2="a1" data-source-line="11" data-uid="lnk5" id="link_PolynomialBasis_a1"><path codeLine="11" d="M687.39,43.3 C698.61,43.3 691.83,43.3 703.05,43.3" fill="none" id="PolynomialBasis-to-a1" style="stroke:#181818;stroke-width:1;"/><polygon fill="none" points="721.05,43.3,703.05,37.3,703.05,49.3,721.05,43.3" style="stroke:#181818;stroke-width:1;"/></g><!--reverse link PolynomialBasis to CartProdPolyBasis--><g class="link" data-entity-1="PolynomialBasis" data-entity-2="CartProdPolyBasis" data-source-line="36" data-uid="lnk14" id="link_PolynomialBasis_CartProdPolyBasis"><path codeLine="36" d="M598.28,101.3 C598.28,101.3 557.4,215.7 536,275.58" fill="none" id="PolynomialBasis-backto-CartProdPolyBasis" style="stroke:#181818;stroke-width:1;"/></g><!--reverse link PolynomialBasis to CompWiseTensorPolyBasis--><g class="link" data-entity-1="PolynomialBasis" data-entity-2="CompWiseTensorPolyBasis" data-source-line="37" data-uid="lnk15" id="link_PolynomialBasis_CompWiseTensorPolyBasis"><path codeLine="37" d="M598.28,101.3 C598.28,101.3 891.39,191.11 1124.28,267.89 C1151.71,276.93 1182.37,287.37 1206.68,295.74" fill="none" id="PolynomialBasis-backto-CompWiseTensorPolyBasis" style="stroke:#181818;stroke-width:1;"/></g><!--reverse link PolynomialBasis to RaviartThomasPolyBasis--><g class="link" data-entity-1="PolynomialBasis" data-entity-2="RaviartThomasPolyBasis" data-source-line="38" data-uid="lnk16" id="link_PolynomialBasis_RaviartThomasPolyBasis"><path codeLine="38" d="M598.28,101.3 C598.28,101.3 696.35,247.28 728.91,295.75" fill="none" id="PolynomialBasis-backto-RaviartThomasPolyBasis" style="stroke:#181818;stroke-width:1;"/></g><!--reverse link PolynomialBasis to NedelecPolyBasisOnSimplex--><g class="link" data-entity-1="PolynomialBasis" data-entity-2="NedelecPolyBasisOnSimplex" data-source-line="39" data-uid="lnk17" id="link_PolynomialBasis_NedelecPolyBasisOnSimplex"><path codeLine="39" d="M598.28,101.3 C598.28,101.3 871.62,247.28 962.38,295.75" fill="none" id="PolynomialBasis-backto-NedelecPolyBasisOnSimplex" style="stroke:#181818;stroke-width:1;"/></g><!--reverse link PolynomialBasis to BernsteinBasisOnSimplex--><g class="link" data-entity-1="PolynomialBasis" data-entity-2="BernsteinBasisOnSimplex" data-source-line="40" data-uid="lnk18" id="link_PolynomialBasis_BernsteinBasisOnSimplex"><path codeLine="40" d="M598.28,101.3 C598.28,101.3 421.81,226.85 341.85,283.75" fill="none" id="PolynomialBasis-backto-BernsteinBasisOnSimplex" style="stroke:#181818;stroke-width:1;"/></g><!--reverse link PolynomialBasis to ModalC0Basis--><g class="link" data-entity-1="PolynomialBasis" data-entity-2="ModalC0Basis" data-source-line="41" data-uid="lnk19" id="link_PolynomialBasis_ModalC0Basis"><path codeLine="41" d="M598.28,101.3 C598.28,101.3 1046.4,144.75 1379.28,267.89 C1390.91,272.19 1402.96,277.82 1414.12,283.59" fill="none" id="PolynomialBasis-backto-ModalC0Basis" style="stroke:#181818;stroke-width:1;"/></g><!--reverse link PolynomialBasis to BarycentricPm?Basis--><g class="link" data-entity-1="PolynomialBasis" data-entity-2="BarycentricPm&#923;Basis" data-source-line="42" data-uid="lnk20" id="link_PolynomialBasis_BarycentricPm&#923;Basis"><path codeLine="42" d="M598.28,101.3 C598.28,101.3 378.45,125.07 205.28,159.59 C199.59,160.73 193.75,161.97 187.88,163.27" fill="none" id="PolynomialBasis-backto-BarycentricPm&#923;Basis" style="stroke:#181818;stroke-width:1;"/></g><!--reverse link PolynomialBasis to BarycentricP?Basis--><g class="link" data-entity-1="PolynomialBasis" data-entity-2="BarycentricP&#923;Basis" data-source-line="43" data-uid="lnk21" id="link_PolynomialBasis_BarycentricP&#923;Basis"><path codeLine="43" d="M598.28,101.3 C598.28,101.3 476.24,137.01 389.95,162.26" fill="none" id="PolynomialBasis-backto-BarycentricP&#923;Basis" style="stroke:#181818;stroke-width:1;"/></g><!--reverse link CartProdPolyBasis to m1--><g class="link" data-entity-1="CartProdPolyBasis" data-entity-2="m1" data-source-line="48" data-uid="lnk24" id="link_CartProdPolyBasis_m1"><path codeLine="48" d="M523.28,354.84 C523.28,375.88 523.28,394.92 523.28,408.22" fill="none" id="CartProdPolyBasis-backto-m1" style="stroke:#181818;stroke-width:1;"/><polygon fill="#181818" points="523.28,348.84,519.28,357.84,523.28,353.84,527.28,357.84,523.28,348.84" style="stroke:#181818;stroke-width:1;"/></g><!--reverse link BarycentricPm?Basis to BernsteinBasisOnSimplex--><g class="link" data-entity-1="BarycentricPm&#923;Basis" data-entity-2="BernsteinBasisOnSimplex" data-source-line="49" data-uid="lnk25" id="link_BarycentricPm&#923;Basis_BernsteinBasisOnSimplex"><path codeLine="49" d="M154.0843,222.5031 C187.9043,242.6131 223.18,263.58 256.96,283.65" fill="none" id="BarycentricPm&#923;Basis-backto-BernsteinBasisOnSimplex" style="stroke:#181818;stroke-width:1;"/><polygon fill="none" points="143.77,216.37,146.8828,222.8747,154.0843,222.5031,150.9715,215.9984,143.77,216.37" style="stroke:#181818;stroke-width:1;"/></g><!--reverse link BarycentricP?Basis to BernsteinBasisOnSimplex--><g class="link" data-entity-1="BarycentricP&#923;Basis" data-entity-2="BernsteinBasisOnSimplex" data-source-line="50" data-uid="lnk26" id="link_BarycentricP&#923;Basis_BernsteinBasisOnSimplex"><path codeLine="50" d="M305.3126,228.2163 C304.8126,248.3863 304.44,263.65 303.95,283.8" fill="none" id="BarycentricP&#923;Basis-backto-BernsteinBasisOnSimplex" style="stroke:#181818;stroke-width:1;"/><polygon fill="none" points="305.61,216.22,301.4625,222.119,305.3126,228.2163,309.4601,222.3173,305.61,216.22" style="stroke:#181818;stroke-width:1;"/></g><!--reverse link CartProdPolyBasis to m2--><g class="link" data-entity-1="CartProdPolyBasis" data-entity-2="m2" data-source-line="51" data-uid="lnk27" id="link_CartProdPolyBasis_m2"><path codeLine="51" d="M595.4752,351.6616 C634.7352,372.5816 676.13,394.64 701.2,408" fill="none" id="CartProdPolyBasis-backto-m2" style="stroke:#181818;stroke-width:1;"/><polygon fill="#181818" points="590.18,348.84,596.2417,356.6025,594.5926,351.1913,600.0038,349.5422,590.18,348.84" style="stroke:#181818;stroke-width:1;"/></g><!--reverse link CompWiseTensorPolyBasis to m2--><g class="link" data-entity-1="CompWiseTensorPolyBasis" data-entity-2="m2" data-source-line="52" data-uid="lnk28" id="link_CompWiseTensorPolyBasis_m2"><path codeLine="52" d="M1206.4367,330.6826 C1181.6067,339.9226 1154.27,349.17 1124.28,356.48 C1005.97,385.34 864.71,402.95 784.15,411.45" fill="none" id="CompWiseTensorPolyBasis-backto-m2" style="stroke:#181818;stroke-width:1;"/><polygon fill="#181818" points="1212.06,328.59,1202.23,327.98,1207.3739,330.3338,1205.0202,335.4777,1212.06,328.59" style="stroke:#181818;stroke-width:1;"/></g><!--reverse link RaviartThomasPolyBasis to m2--><g class="link" data-entity-1="RaviartThomasPolyBasis" data-entity-2="m2" data-source-line="53" data-uid="lnk29" id="link_RaviartThomasPolyBasis_m2"><path codeLine="53" d="M735.1999,334.4926 C730.9999,356.3926 724.57,389.98 721.11,408.09" fill="none" id="RaviartThomasPolyBasis-backto-m2" style="stroke:#181818;stroke-width:1;"/><polygon fill="#181818" points="736.33,328.6,730.7065,336.6855,735.3883,333.5105,738.5633,338.1923,736.33,328.6" style="stroke:#181818;stroke-width:1;"/></g><!--reverse link NedelecPolyBasisOnSimplex to m2--><g class="link" data-entity-1="NedelecPolyBasisOnSimplex" data-entity-2="m2" data-source-line="54" data-uid="lnk30" id="link_NedelecPolyBasisOnSimplex_m2"><path codeLine="54" d="M945.5387,330.7506 C888.4987,352.6506 791.28,389.98 744.13,408.09" fill="none" id="NedelecPolyBasisOnSimplex-backto-m2" style="stroke:#181818;stroke-width:1;"/><polygon fill="#181818" points="951.14,328.6,941.3043,328.0917,946.4722,330.3922,944.1717,335.5601,951.14,328.6" style="stroke:#181818;stroke-width:1;"/></g><!--reverse link BarycentricPm?Basis to m2--><g class="link" data-entity-1="BarycentricPm&#923;Basis" data-entity-2="m2" data-source-line="55" data-uid="lnk31" id="link_BarycentricPm&#923;Basis_m2"><path codeLine="55" d="M98.6298,222.1131 C101.4898,260.1531 112.27,322.2 155.28,356.48 C164.97,364.2 507.98,397.58 654.25,411.5" fill="none" id="BarycentricPm&#923;Basis-backto-m2" style="stroke:#181818;stroke-width:1;"/><polygon fill="#181818" points="98.18,216.13,94.866,225.4046,98.5549,221.1159,102.8435,224.8048,98.18,216.13" style="stroke:#181818;stroke-width:1;"/></g><!--reverse link BarycentricP?Basis to m2--><g class="link" data-entity-1="BarycentricP&#923;Basis" data-entity-2="m2" data-source-line="56" data-uid="lnk32" id="link_BarycentricP&#923;Basis_m2"><path codeLine="56" d="M231.8472,219.1634 C210.0072,231.5134 193.6,245.5 181.28,267.89 C162.29,302.38 155.06,327.11 181.28,356.48 C189.1,365.25 513.07,397.64 654.43,411.39" fill="none" id="BarycentricP&#923;Basis-backto-m2" style="stroke:#181818;stroke-width:1;"/><polygon fill="#181818" points="237.07,216.21,227.2669,217.1582,232.7177,218.6711,231.2047,224.1219,237.07,216.21" style="stroke:#181818;stroke-width:1;"/></g><!--SRC=[XPFVJi8m5CRl-nGDLneo8boQtG31n0kLA8cNIxSTeRh-oManBC2J-4u-asKoXbkBT-k-tpbV-vtMV72f6J91bwZM-bwk0BbbCWCw8YkU0mMXRKa5Y1JG46BL4go3w9PGob9ZaMMMziR7hp4YAxVnxLmLfLI2isBVeynGDZp76tN233TLBqhxhdEYC0VyNIBODSh4bXhSZptP4pQayIuguCr6xHwjdJcZjJEQChHpLFa1xbZ1HYi9qfgMkwdScXvAw5TkO07IA3nrQe1dzicTpsAb13CU_H5oA20xAK_oXGjTmAP19e3IME3oBz09fhMr1vMpOdhZ3z4SGoEr1yCoSyT5dis_lvgQlaOkRS9bpZCmhi33Yui5f3tFU3SOTBCFO85ulN0WQYyRZjsB1qRWXy-33xJpfFS_MOD4fUzmU5TNvq_fkXAhzoI69-HkDficsa59siWZGhftFuwYGw5tiCffeGXyD-SI7t0UaS2iQza_tLeDphC6lEVoQ2tf1m00]--></g></svg>