<?xml version="1.0" encoding="UTF-8" standalone="no"?>
<!-- Created with Inkscape (http://www.inkscape.org/) -->

<svg
   xmlns:dc="http://purl.org/dc/elements/1.1/"
   xmlns:cc="http://creativecommons.org/ns#"
   xmlns:rdf="http://www.w3.org/1999/02/22-rdf-syntax-ns#"
   xmlns:svg="http://www.w3.org/2000/svg"
   xmlns="http://www.w3.org/2000/svg"
   xmlns:sodipodi="http://sodipodi.sourceforge.net/DTD/sodipodi-0.dtd"
   xmlns:inkscape="http://www.inkscape.org/namespaces/inkscape"
   width="41.244461mm"
   height="45.036282mm"
   viewBox="0 0 41.244461 45.036282"
   version="1.1"
   id="svg8"
   inkscape:version="0.92.3 (2405546, 2018-03-11)"
   sodipodi:docname="bw-light-logo-only.svg"
   inkscape:export-filename="/home/fverdugo/Code/jl/Gridap2.jl/images/bw-light-logo-only.png"
   inkscape:export-xdpi="96"
   inkscape:export-ydpi="96">
  <defs
     id="defs2" />
  <sodipodi:namedview
     id="base"
     pagecolor="#ffffff"
     bordercolor="#666666"
     borderopacity="1.0"
     inkscape:pageopacity="0.0"
     inkscape:pageshadow="2"
     inkscape:zoom="1.979899"
     inkscape:cx="76.890791"
     inkscape:cy="93.175961"
     inkscape:document-units="mm"
     inkscape:current-layer="layer1"
     showgrid="false"
     fit-margin-top="0"
     fit-margin-left="0"
     fit-margin-right="0"
     fit-margin-bottom="0"
     inkscape:window-width="1920"
     inkscape:window-height="1025"
     inkscape:window-x="0"
     inkscape:window-y="27"
     inkscape:window-maximized="1" />
  <metadata
     id="metadata5">
    <rdf:RDF>
      <cc:Work
         rdf:about="">
        <dc:format>image/svg+xml</dc:format>
        <dc:type
           rdf:resource="http://purl.org/dc/dcmitype/StillImage" />
        <dc:title />
      </cc:Work>
    </rdf:RDF>
  </metadata>
  <g
     inkscape:label="Layer 1"
     inkscape:groupmode="layer"
     id="layer1"
     transform="translate(-69.940866,-87.76162)">
    <g
       transform="translate(66.750598,-20.103582)"
       style="display:inline;fill:#000000"
       id="g1272"
       inkscape:export-ydpi="96"
       inkscape:export-xdpi="96">
      <path
         inkscape:connector-curvature="0"
         inkscape:original-d="m 25.135418,133.26011 v 20.75736 l 17.976396,-10.37868 z"
         id="path1547-2"
         d="m 25.135418,135.90594 v 15.4657 a 1.5275724,1.5275724 29.999996 0 0 2.291359,1.32291 l 13.393678,-7.73284 a 1.527573,1.527573 90 0 0 0,-2.64584 l -13.393678,-7.73284 a 1.5275724,1.5275724 150 0 0 -2.291359,1.32291 z"
         style="display:inline;fill:#000000;fill-opacity:1;stroke:#000000;stroke-width:0;stroke-linecap:butt;stroke-linejoin:miter;stroke-miterlimit:4;stroke-dasharray:none;stroke-opacity:1" />
      <path
         inkscape:connector-curvature="0"
         inkscape:original-d="m 26.458334,130.96875 17.976394,10.37868 v -20.75735 z"
         id="path1549-29"
         d="m 28.749693,132.29167 13.393676,7.73284 a 1.5275723,1.5275723 150 0 0 2.291359,-1.32291 V 123.23591 A 1.527573,1.527573 30.000007 0 0 42.143369,121.913 l -13.393676,7.73283 a 1.5275724,1.5275724 90.000012 0 0 0,2.64584 z"
         style="display:inline;fill:#000000;fill-opacity:1;stroke:#000000;stroke-width:0;stroke-linecap:butt;stroke-linejoin:miter;stroke-miterlimit:4;stroke-dasharray:none;stroke-opacity:1" />
      <path
         inkscape:connector-curvature="0"
         inkscape:original-d="m 3.1902687,120.59008 19.2993133,11.14246 2e-6,22.28493 L 3.1902687,142.875 Z"
         id="path1551-7"
         d="m 5.4816277,121.913 14.7165953,8.49662 a 4.5827174,4.5827174 59.999993 0 1 2.291359,3.96875 l 2e-6,16.99327 a 1.5275721,1.5275721 150 0 1 -2.291359,1.32291 L 5.4816273,144.19792 a 4.5827188,4.5827188 60.000006 0 1 -2.2913586,-3.96875 v -16.99326 a 1.5275728,1.5275728 150 0 1 2.291359,-1.32291 z"
         style="display:inline;fill:#000000;fill-opacity:1;stroke:#000000;stroke-width:0;stroke-linecap:butt;stroke-linejoin:miter;stroke-miterlimit:4;stroke-dasharray:none;stroke-opacity:1" />
      <path
         inkscape:connector-curvature="0"
         inkscape:original-d="M 4.5131857,118.29872 23.812498,107.15625 43.111812,118.29872 23.812498,129.44118 Z"
         id="path1553-5"
         d="M 6.8045442,116.9758 21.52114,108.47917 a 4.5827151,4.5827151 -180 0 1 4.582717,0 l 14.716596,8.49663 a 1.5275727,1.5275727 90.000011 0 1 0,2.64584 l -14.716596,8.49662 a 4.5827192,4.5827192 1.0926984e-6 0 1 -4.582718,0 L 6.8045447,119.62164 a 1.5275728,1.5275728 89.999989 0 1 -5e-7,-2.64584 z"
         style="display:inline;fill:#000000;fill-opacity:1;stroke:#000000;stroke-width:0;stroke-linecap:butt;stroke-linejoin:miter;stroke-miterlimit:4;stroke-dasharray:none;stroke-opacity:1" />
    </g>
  </g>
</svg>
