<?xml version="1.0" encoding="us-ascii" standalone="no"?><svg xmlns="http://www.w3.org/2000/svg" xmlns:xlink="http://www.w3.org/1999/xlink" contentStyleType="text/css" height="335px" preserveAspectRatio="none" style="width:1080px;height:335px;background:#FFFFFF;" version="1.1" viewBox="0 0 1080 335" width="1080px" zoomAndPan="magnify"><defs/><g><!--class a1--><g id="elem_a1"><rect codeLine="5" fill="#F1F1F1" height="32" id="a1" rx="2.5" ry="2.5" style="stroke:#181818;stroke-width:0.5;" width="231" x="592" y="27.3"/><ellipse cx="607" cy="43.3" fill="#A9DCDF" rx="11" ry="11" style="stroke:#181818;stroke-width:1.0;"/><path d="M607.1094,38.6437 L605.9531,43.7219 L608.2813,43.7219 L607.1094,38.6437 Z M605.625,36.4094 L608.6094,36.4094 L611.9688,48.8 L609.5156,48.8 L608.75,45.7375 L605.4688,45.7375 L604.7188,48.8 L602.2813,48.8 L605.625,36.4094 Z " fill="#000000"/><text fill="#000000" font-family="sans-serif" font-size="14" font-style="italic" lengthAdjust="spacing" textLength="199" x="621" y="48.1467">AbstractArray{&lt;:Polynomial}</text></g><!--class PolynomialBasis--><g id="elem_PolynomialBasis"><rect codeLine="6" fill="#F1F1F1" height="72.5938" id="PolynomialBasis" rx="2.5" ry="2.5" style="stroke:#181818;stroke-width:0.5;" width="142" x="395.5" y="7"/><ellipse cx="410.5" cy="23" fill="#A9DCDF" rx="11" ry="11" style="stroke:#181818;stroke-width:1.0;"/><path d="M410.6094,18.3438 L409.4531,23.4219 L411.7813,23.4219 L410.6094,18.3438 Z M409.125,16.1094 L412.1094,16.1094 L415.4688,28.5 L413.0156,28.5 L412.25,25.4375 L408.9688,25.4375 L408.2188,28.5 L405.7813,28.5 L409.125,16.1094 Z " fill="#000000"/><text fill="#000000" font-family="sans-serif" font-size="14" font-style="italic" lengthAdjust="spacing" textLength="110" x="424.5" y="27.8467">PolynomialBasis</text><line style="stroke:#181818;stroke-width:0.5;" x1="396.5" x2="536.5" y1="39" y2="39"/><ellipse cx="406.5" cy="52.6484" fill="none" rx="3" ry="3" style="stroke:#038048;stroke-width:1.0;"/><text fill="#000000" font-family="sans-serif" font-size="14" lengthAdjust="spacing" textLength="67" x="415.5" y="55.9951">get_order</text><ellipse cx="406.5" cy="68.9453" fill="none" rx="3" ry="3" style="stroke:#038048;stroke-width:1.0;"/><text fill="#000000" font-family="sans-serif" font-size="14" lengthAdjust="spacing" textLength="79" x="415.5" y="72.292">return_type</text></g><polygon fill="none" points="467.1258,79.5938,474.4695,99.4701,460.4716,99.7114" style="stroke:#181818;stroke-width:1.0;"/><line style="stroke:#181818;stroke-width:1.0;" x1="467.4705" x2="467.5" y1="99.5908" y2="101.3"/><line style="stroke:#181818;stroke-width:1.0;" x1="537.5" x2="557.82" y1="43.2993" y2="43.3"/><!--class UniformPolyBasis--><g id="elem_UniformPolyBasis"><rect codeLine="14" fill="#F1F1F1" height="72.5938" id="UniformPolyBasis" rx="2.5" ry="2.5" style="stroke:#181818;stroke-width:0.5;" width="150" x="171.5" y="159.59"/><ellipse cx="186.5" cy="175.59" fill="#F1F1F1" rx="11" ry="11" style="stroke:#181818;stroke-width:1.0;"/><path d="M185.9844,176.1525 Q184.125,175.4494 183.4688,174.6837 Q182.8281,173.9025 182.8281,172.59 Q182.8281,170.9025 183.9063,169.9337 Q184.9844,168.965 186.8594,168.965 Q187.7188,168.965 188.5625,169.1681 Q189.4219,169.3556 190.2656,169.7462 L190.2656,172.1369 Q189.4844,171.5744 188.6563,171.2931 Q187.8438,170.9962 187.0469,170.9962 Q186.1719,170.9962 185.6875,171.3556 Q185.2188,171.715 185.2188,172.3712 Q185.2188,172.8869 185.5625,173.2306 Q185.9063,173.5587 187,173.965 L188.0625,174.3712 Q189.5469,174.9181 190.25,175.8244 Q190.9688,176.7306 190.9688,178.1056 Q190.9688,179.9806 189.8594,180.9025 Q188.75,181.8244 186.5,181.8244 Q185.5781,181.8244 184.6563,181.6056 Q183.7344,181.3869 182.875,180.965 L182.875,178.4337 Q183.8438,179.1212 184.7656,179.465 Q185.6875,179.8087 186.5781,179.8087 Q187.4844,179.8087 187.9844,179.4025 Q188.4844,178.9806 188.4844,178.2462 Q188.4844,177.6837 188.1406,177.2775 Q187.8125,176.8556 187.1875,176.6056 L185.9844,176.1525 Z " fill="#000000"/><text fill="#000000" font-family="sans-serif" font-size="14" lengthAdjust="spacing" textLength="118" x="200.5" y="180.4367">UniformPolyBasis</text><line style="stroke:#181818;stroke-width:0.5;" x1="172.5" x2="320.5" y1="191.59" y2="191.59"/><ellipse cx="182.5" cy="205.2384" fill="none" rx="3" ry="3" style="stroke:#038048;stroke-width:1.0;"/><text fill="#000000" font-family="sans-serif" font-size="14" lengthAdjust="spacing" textLength="104" x="191.5" y="208.5851">get_exponents</text><ellipse cx="182.5" cy="221.5353" fill="none" rx="3" ry="3" style="stroke:#038048;stroke-width:1.0;"/><text fill="#000000" font-family="sans-serif" font-size="14" lengthAdjust="spacing" textLength="75" x="191.5" y="224.882">get_orders</text></g><!--class CompWiseTensorPolyBasis--><g id="elem_CompWiseTensorPolyBasis"><rect codeLine="18" fill="#F1F1F1" height="32" id="CompWiseTensorPolyBasis" rx="2.5" ry="2.5" style="stroke:#181818;stroke-width:0.5;" width="220" x="356.5" y="179.89"/><ellipse cx="371.5" cy="195.89" fill="#F1F1F1" rx="11" ry="11" style="stroke:#181818;stroke-width:1.0;"/><path d="M370.9844,196.4525 Q369.125,195.7494 368.4688,194.9838 Q367.8281,194.2025 367.8281,192.89 Q367.8281,191.2025 368.9063,190.2338 Q369.9844,189.265 371.8594,189.265 Q372.7188,189.265 373.5625,189.4681 Q374.4219,189.6556 375.2656,190.0463 L375.2656,192.4369 Q374.4844,191.8744 373.6563,191.5931 Q372.8438,191.2963 372.0469,191.2963 Q371.1719,191.2963 370.6875,191.6556 Q370.2188,192.015 370.2188,192.6713 Q370.2188,193.1869 370.5625,193.5306 Q370.9063,193.8588 372,194.265 L373.0625,194.6713 Q374.5469,195.2181 375.25,196.1244 Q375.9688,197.0306 375.9688,198.4056 Q375.9688,200.2806 374.8594,201.2025 Q373.75,202.1244 371.5,202.1244 Q370.5781,202.1244 369.6563,201.9056 Q368.7344,201.6869 367.875,201.265 L367.875,198.7338 Q368.8438,199.4213 369.7656,199.765 Q370.6875,200.1088 371.5781,200.1088 Q372.4844,200.1088 372.9844,199.7025 Q373.4844,199.2806 373.4844,198.5463 Q373.4844,197.9838 373.1406,197.5775 Q372.8125,197.1556 372.1875,196.9056 L370.9844,196.4525 Z " fill="#000000"/><text fill="#000000" font-family="sans-serif" font-size="14" lengthAdjust="spacing" textLength="188" x="385.5" y="200.7367">CompWiseTensorPolyBasis</text></g><!--class RaviartThomasPolyBasis--><g id="elem_RaviartThomasPolyBasis"><rect codeLine="19" fill="#F1F1F1" height="32" id="RaviartThomasPolyBasis" rx="2.5" ry="2.5" style="stroke:#181818;stroke-width:0.5;" width="199" x="612" y="179.89"/><ellipse cx="627" cy="195.89" fill="#F1F1F1" rx="11" ry="11" style="stroke:#181818;stroke-width:1.0;"/><path d="M626.4844,196.4525 Q624.625,195.7494 623.9688,194.9838 Q623.3281,194.2025 623.3281,192.89 Q623.3281,191.2025 624.4063,190.2338 Q625.4844,189.265 627.3594,189.265 Q628.2188,189.265 629.0625,189.4681 Q629.9219,189.6556 630.7656,190.0463 L630.7656,192.4369 Q629.9844,191.8744 629.1563,191.5931 Q628.3438,191.2963 627.5469,191.2963 Q626.6719,191.2963 626.1875,191.6556 Q625.7188,192.015 625.7188,192.6713 Q625.7188,193.1869 626.0625,193.5306 Q626.4063,193.8588 627.5,194.265 L628.5625,194.6713 Q630.0469,195.2181 630.75,196.1244 Q631.4688,197.0306 631.4688,198.4056 Q631.4688,200.2806 630.3594,201.2025 Q629.25,202.1244 627,202.1244 Q626.0781,202.1244 625.1563,201.9056 Q624.2344,201.6869 623.375,201.265 L623.375,198.7338 Q624.3438,199.4213 625.2656,199.765 Q626.1875,200.1088 627.0781,200.1088 Q627.9844,200.1088 628.4844,199.7025 Q628.9844,199.2806 628.9844,198.5463 Q628.9844,197.9838 628.6406,197.5775 Q628.3125,197.1556 627.6875,196.9056 L626.4844,196.4525 Z " fill="#000000"/><text fill="#000000" font-family="sans-serif" font-size="14" lengthAdjust="spacing" textLength="167" x="641" y="200.7367">RaviartThomasPolyBasis</text></g><!--class NedelecPolyBasisOnSimplex--><g id="elem_NedelecPolyBasisOnSimplex"><rect codeLine="20" fill="#F1F1F1" height="32" id="NedelecPolyBasisOnSimplex" rx="2.5" ry="2.5" style="stroke:#181818;stroke-width:0.5;" width="227" x="846" y="179.89"/><ellipse cx="861" cy="195.89" fill="#F1F1F1" rx="11" ry="11" style="stroke:#181818;stroke-width:1.0;"/><path d="M860.4844,196.4525 Q858.625,195.7494 857.9688,194.9838 Q857.3281,194.2025 857.3281,192.89 Q857.3281,191.2025 858.4063,190.2338 Q859.4844,189.265 861.3594,189.265 Q862.2188,189.265 863.0625,189.4681 Q863.9219,189.6556 864.7656,190.0463 L864.7656,192.4369 Q863.9844,191.8744 863.1563,191.5931 Q862.3438,191.2963 861.5469,191.2963 Q860.6719,191.2963 860.1875,191.6556 Q859.7188,192.015 859.7188,192.6713 Q859.7188,193.1869 860.0625,193.5306 Q860.4063,193.8588 861.5,194.265 L862.5625,194.6713 Q864.0469,195.2181 864.75,196.1244 Q865.4688,197.0306 865.4688,198.4056 Q865.4688,200.2806 864.3594,201.2025 Q863.25,202.1244 861,202.1244 Q860.0781,202.1244 859.1563,201.9056 Q858.2344,201.6869 857.375,201.265 L857.375,198.7338 Q858.3438,199.4213 859.2656,199.765 Q860.1875,200.1088 861.0781,200.1088 Q861.9844,200.1088 862.4844,199.7025 Q862.9844,199.2806 862.9844,198.5463 Q862.9844,197.9838 862.6406,197.5775 Q862.3125,197.1556 861.6875,196.9056 L860.4844,196.4525 Z " fill="#000000"/><text fill="#000000" font-family="sans-serif" font-size="14" lengthAdjust="spacing" textLength="195" x="875" y="200.7367">NedelecPolyBasisOnSimplex</text></g><!--class ModalC0Basis--><g id="elem_ModalC0Basis"><rect codeLine="21" fill="#F1F1F1" height="56.2969" id="ModalC0Basis" rx="2.5" ry="2.5" style="stroke:#181818;stroke-width:0.5;" width="129" x="7" y="167.74"/><ellipse cx="22" cy="183.74" fill="#F1F1F1" rx="11" ry="11" style="stroke:#181818;stroke-width:1.0;"/><path d="M21.4844,184.3025 Q19.625,183.5994 18.9688,182.8337 Q18.3281,182.0525 18.3281,180.74 Q18.3281,179.0525 19.4063,178.0837 Q20.4844,177.115 22.3594,177.115 Q23.2188,177.115 24.0625,177.3181 Q24.9219,177.5056 25.7656,177.8962 L25.7656,180.2869 Q24.9844,179.7244 24.1563,179.4431 Q23.3438,179.1462 22.5469,179.1462 Q21.6719,179.1462 21.1875,179.5056 Q20.7188,179.865 20.7188,180.5212 Q20.7188,181.0369 21.0625,181.3806 Q21.4063,181.7087 22.5,182.115 L23.5625,182.5212 Q25.0469,183.0681 25.75,183.9744 Q26.4688,184.8806 26.4688,186.2556 Q26.4688,188.1306 25.3594,189.0525 Q24.25,189.9744 22,189.9744 Q21.0781,189.9744 20.1563,189.7556 Q19.2344,189.5369 18.375,189.115 L18.375,186.5837 Q19.3438,187.2712 20.2656,187.615 Q21.1875,187.9587 22.0781,187.9587 Q22.9844,187.9587 23.4844,187.5525 Q23.9844,187.1306 23.9844,186.3962 Q23.9844,185.8337 23.6406,185.4275 Q23.3125,185.0056 22.6875,184.7556 L21.4844,184.3025 Z " fill="#000000"/><text fill="#000000" font-family="sans-serif" font-size="14" lengthAdjust="spacing" textLength="97" x="36" y="188.5867">ModalC0Basis</text><line style="stroke:#181818;stroke-width:0.5;" x1="8" x2="135" y1="199.74" y2="199.74"/><ellipse cx="18" cy="213.3884" fill="none" rx="3" ry="3" style="stroke:#038048;stroke-width:1.0;"/><text fill="#000000" font-family="sans-serif" font-size="14" lengthAdjust="spacing" textLength="75" x="27" y="216.7351">get_orders</text></g><g id="elem_m1"><rect fill="#F1F1F1" height="20.2969" style="stroke:#181818;stroke-width:0.5;" width="151" x="170" y="300.33"/><text fill="#000000" font-family="sans-serif" font-size="14" lengthAdjust="spacing" textLength="137" x="177" y="315.3251">(&lt;:Polynomial)Basis</text></g><g id="elem_m2"><rect fill="#F1F1F1" height="36.5938" style="stroke:#181818;stroke-width:0.5;" width="222" x="355.5" y="292.19"/><text fill="#000000" font-family="sans-serif" font-size="14" lengthAdjust="spacing" textLength="181" x="376" y="307.1851">QGrad[&lt;:Polynomial]Basis</text><text fill="#000000" font-family="sans-serif" font-size="14" lengthAdjust="spacing" textLength="208" x="362.5" y="323.482">QCurlGrad[&lt;:Polynomial]Basis</text></g><g id="elem_m4"><rect fill="#F1F1F1" height="20.2969" style="stroke:#181818;stroke-width:0.5;" width="220" x="612.5" y="300.33"/><text fill="#000000" font-family="sans-serif" font-size="14" lengthAdjust="spacing" textLength="206" x="619.5" y="315.3251">PCurlGrad[&lt;:Polynomial]Basis</text></g><g id="elem_m5"><rect fill="#F1F1F1" height="20.2969" style="stroke:#181818;stroke-width:0.5;" width="159" x="880" y="300.33"/><text fill="#000000" font-family="sans-serif" font-size="14" lengthAdjust="spacing" textLength="145" x="887" y="315.3251">PGradMonomialBasis</text></g><!--link PolynomialBasis to a1--><g id="link_PolynomialBasis_a1"><path codeLine="11" d="M557.82,43.3 C569.12,43.3 562.42,43.3 573.73,43.3 " fill="none" id="PolynomialBasis-to-a1" style="stroke:#181818;stroke-width:1.0;"/><polygon fill="none" points="591.73,43.3,573.73,37.3,573.73,49.3,591.73,43.3" style="stroke:#181818;stroke-width:1.0;"/></g><!--reverse link PolynomialBasis to UniformPolyBasis--><g id="link_PolynomialBasis_UniformPolyBasis"><path codeLine="26" d="M467.5,101.3 C467.5,101.3 395.04,127.3 338.5,151.59 C332.9,154 327.15,156.54 321.37,159.14 " fill="none" id="PolynomialBasis-backto-UniformPolyBasis" style="stroke:#181818;stroke-width:1.0;"/></g><!--reverse link PolynomialBasis to CompWiseTensorPolyBasis--><g id="link_PolynomialBasis_CompWiseTensorPolyBasis"><path codeLine="27" d="M467.5,101.3 C467.5,101.3 466.95,152.85 466.67,179.43 " fill="none" id="PolynomialBasis-backto-CompWiseTensorPolyBasis" style="stroke:#181818;stroke-width:1.0;"/></g><!--reverse link PolynomialBasis to RaviartThomasPolyBasis--><g id="link_PolynomialBasis_RaviartThomasPolyBasis"><path codeLine="28" d="M467.5,101.3 C467.5,101.3 601.91,152.85 671.21,179.43 " fill="none" id="PolynomialBasis-backto-RaviartThomasPolyBasis" style="stroke:#181818;stroke-width:1.0;"/></g><!--reverse link PolynomialBasis to NedelecPolyBasisOnSimplex--><g id="link_PolynomialBasis_NedelecPolyBasisOnSimplex"><path codeLine="29" d="M467.5,101.3 C467.5,101.3 670.73,114.85 828.5,151.59 C859.41,158.79 893.42,170.14 919.03,179.41 " fill="none" id="PolynomialBasis-backto-NedelecPolyBasisOnSimplex" style="stroke:#181818;stroke-width:1.0;"/></g><!--reverse link PolynomialBasis to ModalC0Basis--><g id="link_PolynomialBasis_ModalC0Basis"><path codeLine="30" d="M467.5,101.3 C467.5,101.3 288.24,107.26 154.5,151.59 C142.16,155.68 129.42,161.45 117.75,167.44 " fill="none" id="PolynomialBasis-backto-ModalC0Basis" style="stroke:#181818;stroke-width:1.0;"/></g><!--reverse link UniformPolyBasis to m1--><g id="link_UniformPolyBasis_m1"><path codeLine="36" d="M246.1269,238.5098 C245.9169,262.2198 245.71,285.61 245.58,300.27 " fill="none" id="UniformPolyBasis-backto-m1" style="stroke:#181818;stroke-width:1.0;"/><polygon fill="#181818" points="246.18,232.51,242.1004,241.4742,246.1357,237.5098,250.1001,241.5451,246.18,232.51" style="stroke:#181818;stroke-width:1.0;"/></g><!--reverse link CompWiseTensorPolyBasis to m2--><g id="link_CompWiseTensorPolyBasis_m2"><path codeLine="37" d="M466.5,218.07 C466.5,238.84 466.5,270.03 466.5,291.95 " fill="none" id="CompWiseTensorPolyBasis-backto-m2" style="stroke:#181818;stroke-width:1.0;"/><polygon fill="#181818" points="466.5,212.07,462.5,221.07,466.5,217.07,470.5,221.07,466.5,212.07" style="stroke:#181818;stroke-width:1.0;"/></g><!--reverse link RaviartThomasPolyBasis to m4--><g id="link_RaviartThomasPolyBasis_m4"><path codeLine="38" d="M713.5633,218.0416 C715.8733,241.6916 719.68,280.66 721.58,300.11 " fill="none" id="RaviartThomasPolyBasis-backto-m4" style="stroke:#181818;stroke-width:1.0;"/><polygon fill="#181818" points="712.98,212.07,709.8739,221.4162,713.4661,217.0463,717.836,220.6385,712.98,212.07" style="stroke:#181818;stroke-width:1.0;"/></g><!--reverse link NedelecPolyBasisOnSimplex to m5--><g id="link_NedelecPolyBasisOnSimplex_m5"><path codeLine="39" d="M959.5,218.07 C959.5,241.72 959.5,280.66 959.5,300.11 " fill="none" id="NedelecPolyBasisOnSimplex-backto-m5" style="stroke:#181818;stroke-width:1.0;"/><polygon fill="#181818" points="959.5,212.07,955.5,221.07,959.5,217.07,963.5,221.07,959.5,212.07" style="stroke:#181818;stroke-width:1.0;"/></g><!--SRC=[XP9FJy904CNl-oasd3IcYH2u62x8mNX0GJ4Ur9213h2w_pAxLHhakziMqZPb6s-x-tvvi-zbt9VG5WWKtv19xBtU8WaFUeMynxOYHexA-fGhL4ianvWt6_GPnFUCSrWwJx3ol3CwdKP4aEw7DrCZKssK07deS70SkdMyKc_12LTuSNwLEIyCnKZ7Aw5FI2zyQZ5xEB03WouV_aOIrpvgUZH-bWrAia4lMgmDgPmzcuGxQpHgxnh3NJ6ij1WRPL-5mpbgPwXqge0d-1P0Vhur2bn0Vy0O9QvAvL4_2sKbxYfaOcAGu-jm6UuKdZLRowg8pXA6gROGGRWbK91j3nV4wq4PCyjFp9VdehulbuLOB8tgbiZiZY1-gtCV1VUkP-E4P8jwTEcLBjD_sNx5vjp4r28SYG4xMwfX59iV7UN_RIcwGdeiN6z5z5bhgHKqO7y0]--></g></svg>