<svg xmlns="http://www.w3.org/2000/svg" xmlns:xlink="http://www.w3.org/1999/xlink" contentStyleType="text/css" data-diagram-type="CLASS" height="435px" preserveAspectRatio="none" style="width:1478px;height:435px;background:#FFFFFF;" version="1.1" viewBox="0 0 1478 435" width="1478px" zoomAndPan="magnify"><defs/><g><!--class a1--><g class="entity" data-entity="a1" data-source-line="5" data-uid="ent0002" id="entity_a1"><rect fill="#F1F1F1" height="32" rx="2.5" ry="2.5" style="stroke:#181818;stroke-width:0.5;" width="239.6006" x="666.75" y="27.3"/><ellipse cx="681.75" cy="43.3" fill="#A9DCDF" rx="11" ry="11" style="stroke:#181818;stroke-width:1;"/><path d="M681.8594,38.6437 L680.7031,43.7219 L683.0313,43.7219 L681.8594,38.6437 Z M680.375,36.4094 L683.3594,36.4094 L686.7188,48.8 L684.2656,48.8 L683.5,45.7375 L680.2188,45.7375 L679.4688,48.8 L677.0313,48.8 L680.375,36.4094 Z " fill="#000000"/><text fill="#000000" font-family="sans-serif" font-size="14" font-style="italic" lengthAdjust="spacing" textLength="207.6006" x="695.75" y="48.1467">AbstractArray{&lt;:Polynomial}</text></g><!--class PolynomialBasis--><g class="entity" data-entity="PolynomialBasis" data-source-line="6" data-uid="ent0003" id="entity_PolynomialBasis"><rect fill="#F1F1F1" height="72.5938" rx="2.5" ry="2.5" style="stroke:#181818;stroke-width:0.5;" width="145.2783" x="466.92" y="7"/><ellipse cx="481.92" cy="23" fill="#A9DCDF" rx="11" ry="11" style="stroke:#181818;stroke-width:1;"/><path d="M482.0294,18.3438 L480.8731,23.4219 L483.2013,23.4219 L482.0294,18.3438 Z M480.545,16.1094 L483.5294,16.1094 L486.8888,28.5 L484.4356,28.5 L483.67,25.4375 L480.3888,25.4375 L479.6388,28.5 L477.2013,28.5 L480.545,16.1094 Z " fill="#000000"/><text fill="#000000" font-family="sans-serif" font-size="14" font-style="italic" lengthAdjust="spacing" textLength="113.2783" x="495.92" y="27.8467">PolynomialBasis</text><line style="stroke:#181818;stroke-width:0.5;" x1="467.92" x2="611.1983" y1="39" y2="39"/><ellipse cx="477.92" cy="52.6484" fill="none" rx="3" ry="3" style="stroke:#038048;stroke-width:1;"/><text fill="#000000" font-family="sans-serif" font-size="14" lengthAdjust="spacing" textLength="67.5664" x="486.92" y="55.9951">get_order</text><ellipse cx="477.92" cy="68.9453" fill="none" rx="3" ry="3" style="stroke:#038048;stroke-width:1;"/><text fill="#000000" font-family="sans-serif" font-size="14" lengthAdjust="spacing" textLength="81.6348" x="486.92" y="72.292">return_type</text></g><polygon fill="none" points="542.0628,79.5938,550.4224,99.0647,536.4556,100.028" style="stroke:#181818;stroke-width:1;"/><line style="stroke:#181818;stroke-width:1;" x1="543.439" x2="543.56" y1="99.5463" y2="101.3"/><line style="stroke:#181818;stroke-width:1;" x1="612.1983" x2="632.66" y1="43.2993" y2="43.3"/><!--class CartProdPolyBasis--><g class="entity" data-entity="CartProdPolyBasis" data-source-line="14" data-uid="ent0006" id="entity_CartProdPolyBasis"><rect fill="#F1F1F1" height="72.5938" rx="2.5" ry="2.5" style="stroke:#181818;stroke-width:0.5;" width="159.0938" x="389.01" y="275.89"/><ellipse cx="404.01" cy="291.89" fill="#F1F1F1" rx="11" ry="11" style="stroke:#181818;stroke-width:1;"/><path d="M403.4944,292.4525 Q401.635,291.7494 400.9788,290.9838 Q400.3381,290.2025 400.3381,288.89 Q400.3381,287.2025 401.4163,286.2338 Q402.4944,285.265 404.3694,285.265 Q405.2288,285.265 406.0725,285.4681 Q406.9319,285.6556 407.7756,286.0463 L407.7756,288.4369 Q406.9944,287.8744 406.1663,287.5931 Q405.3538,287.2963 404.5569,287.2963 Q403.6819,287.2963 403.1975,287.6556 Q402.7288,288.015 402.7288,288.6713 Q402.7288,289.1869 403.0725,289.5306 Q403.4163,289.8588 404.51,290.265 L405.5725,290.6713 Q407.0569,291.2181 407.76,292.1244 Q408.4788,293.0306 408.4788,294.4056 Q408.4788,296.2806 407.3694,297.2025 Q406.26,298.1244 404.01,298.1244 Q403.0881,298.1244 402.1663,297.9056 Q401.2444,297.6869 400.385,297.265 L400.385,294.7338 Q401.3538,295.4213 402.2756,295.765 Q403.1975,296.1088 404.0881,296.1088 Q404.9944,296.1088 405.4944,295.7025 Q405.9944,295.2806 405.9944,294.5463 Q405.9944,293.9838 405.6506,293.5775 Q405.3225,293.1556 404.6975,292.9056 L403.4944,292.4525 Z " fill="#000000"/><text fill="#000000" font-family="sans-serif" font-size="14" lengthAdjust="spacing" textLength="127.0938" x="418.01" y="296.7367">CartProdPolyBasis</text><line style="stroke:#181818;stroke-width:0.5;" x1="390.01" x2="547.1038" y1="307.89" y2="307.89"/><ellipse cx="400.01" cy="321.5384" fill="none" rx="3" ry="3" style="stroke:#038048;stroke-width:1;"/><text fill="#000000" font-family="sans-serif" font-size="14" lengthAdjust="spacing" textLength="103.4824" x="409.01" y="324.8851">get_exponents</text><ellipse cx="400.01" cy="337.8353" fill="none" rx="3" ry="3" style="stroke:#038048;stroke-width:1;"/><text fill="#000000" font-family="sans-serif" font-size="14" lengthAdjust="spacing" textLength="74.8604" x="409.01" y="341.182">get_orders</text></g><!--class CompWiseTensorPolyBasis--><g class="entity" data-entity="CompWiseTensorPolyBasis" data-source-line="18" data-uid="ent0007" id="entity_CompWiseTensorPolyBasis"><rect fill="#F1F1F1" height="32" rx="2.5" ry="2.5" style="stroke:#181818;stroke-width:0.5;" width="220.002" x="1086.55" y="296.19"/><ellipse cx="1101.55" cy="312.19" fill="#F1F1F1" rx="11" ry="11" style="stroke:#181818;stroke-width:1;"/><path d="M1101.0344,312.7525 Q1099.175,312.0494 1098.5188,311.2837 Q1097.8781,310.5025 1097.8781,309.19 Q1097.8781,307.5025 1098.9563,306.5337 Q1100.0344,305.565 1101.9094,305.565 Q1102.7688,305.565 1103.6125,305.7681 Q1104.4719,305.9556 1105.3156,306.3462 L1105.3156,308.7369 Q1104.5344,308.1744 1103.7063,307.8931 Q1102.8938,307.5962 1102.0969,307.5962 Q1101.2219,307.5962 1100.7375,307.9556 Q1100.2688,308.315 1100.2688,308.9712 Q1100.2688,309.4869 1100.6125,309.8306 Q1100.9563,310.1587 1102.05,310.565 L1103.1125,310.9712 Q1104.5969,311.5181 1105.3,312.4244 Q1106.0188,313.3306 1106.0188,314.7056 Q1106.0188,316.5806 1104.9094,317.5025 Q1103.8,318.4244 1101.55,318.4244 Q1100.6281,318.4244 1099.7063,318.2056 Q1098.7844,317.9869 1097.925,317.565 L1097.925,315.0337 Q1098.8938,315.7212 1099.8156,316.065 Q1100.7375,316.4087 1101.6281,316.4087 Q1102.5344,316.4087 1103.0344,316.0025 Q1103.5344,315.5806 1103.5344,314.8462 Q1103.5344,314.2837 1103.1906,313.8775 Q1102.8625,313.4556 1102.2375,313.2056 L1101.0344,312.7525 Z " fill="#000000"/><text fill="#000000" font-family="sans-serif" font-size="14" lengthAdjust="spacing" textLength="188.002" x="1115.55" y="317.0367">CompWiseTensorPolyBasis</text></g><!--class RaviartThomasPolyBasis--><g class="entity" data-entity="RaviartThomasPolyBasis" data-source-line="19" data-uid="ent0008" id="entity_RaviartThomasPolyBasis"><rect fill="#F1F1F1" height="32" rx="2.5" ry="2.5" style="stroke:#181818;stroke-width:0.5;" width="203.6504" x="582.73" y="296.19"/><ellipse cx="597.73" cy="312.19" fill="#F1F1F1" rx="11" ry="11" style="stroke:#181818;stroke-width:1;"/><path d="M597.2144,312.7525 Q595.355,312.0494 594.6988,311.2837 Q594.0581,310.5025 594.0581,309.19 Q594.0581,307.5025 595.1363,306.5337 Q596.2144,305.565 598.0894,305.565 Q598.9488,305.565 599.7925,305.7681 Q600.6519,305.9556 601.4956,306.3462 L601.4956,308.7369 Q600.7144,308.1744 599.8863,307.8931 Q599.0738,307.5962 598.2769,307.5962 Q597.4019,307.5962 596.9175,307.9556 Q596.4488,308.315 596.4488,308.9712 Q596.4488,309.4869 596.7925,309.8306 Q597.1363,310.1587 598.23,310.565 L599.2925,310.9712 Q600.7769,311.5181 601.48,312.4244 Q602.1988,313.3306 602.1988,314.7056 Q602.1988,316.5806 601.0894,317.5025 Q599.98,318.4244 597.73,318.4244 Q596.8081,318.4244 595.8863,318.2056 Q594.9644,317.9869 594.105,317.565 L594.105,315.0337 Q595.0738,315.7212 595.9956,316.065 Q596.9175,316.4087 597.8081,316.4087 Q598.7144,316.4087 599.2144,316.0025 Q599.7144,315.5806 599.7144,314.8462 Q599.7144,314.2837 599.3706,313.8775 Q599.0425,313.4556 598.4175,313.2056 L597.2144,312.7525 Z " fill="#000000"/><text fill="#000000" font-family="sans-serif" font-size="14" lengthAdjust="spacing" textLength="171.6504" x="611.73" y="317.0367">RaviartThomasPolyBasis</text></g><!--class NedelecPolyBasisOnSimplex--><g class="entity" data-entity="NedelecPolyBasisOnSimplex" data-source-line="20" data-uid="ent0009" id="entity_NedelecPolyBasisOnSimplex"><rect fill="#F1F1F1" height="32" rx="2.5" ry="2.5" style="stroke:#181818;stroke-width:0.5;" width="230.6113" x="821.25" y="296.19"/><ellipse cx="836.25" cy="312.19" fill="#F1F1F1" rx="11" ry="11" style="stroke:#181818;stroke-width:1;"/><path d="M835.7344,312.7525 Q833.875,312.0494 833.2188,311.2837 Q832.5781,310.5025 832.5781,309.19 Q832.5781,307.5025 833.6563,306.5337 Q834.7344,305.565 836.6094,305.565 Q837.4688,305.565 838.3125,305.7681 Q839.1719,305.9556 840.0156,306.3462 L840.0156,308.7369 Q839.2344,308.1744 838.4063,307.8931 Q837.5938,307.5962 836.7969,307.5962 Q835.9219,307.5962 835.4375,307.9556 Q834.9688,308.315 834.9688,308.9712 Q834.9688,309.4869 835.3125,309.8306 Q835.6563,310.1587 836.75,310.565 L837.8125,310.9712 Q839.2969,311.5181 840,312.4244 Q840.7188,313.3306 840.7188,314.7056 Q840.7188,316.5806 839.6094,317.5025 Q838.5,318.4244 836.25,318.4244 Q835.3281,318.4244 834.4063,318.2056 Q833.4844,317.9869 832.625,317.565 L832.625,315.0337 Q833.5938,315.7212 834.5156,316.065 Q835.4375,316.4087 836.3281,316.4087 Q837.2344,316.4087 837.7344,316.0025 Q838.2344,315.5806 838.2344,314.8462 Q838.2344,314.2837 837.8906,313.8775 Q837.5625,313.4556 836.9375,313.2056 L835.7344,312.7525 Z " fill="#000000"/><text fill="#000000" font-family="sans-serif" font-size="14" lengthAdjust="spacing" textLength="198.6113" x="850.25" y="317.0367">NedelecPolyBasisOnSimplex</text></g><!--class BernsteinBasisOnSimplex--><g class="entity" data-entity="BernsteinBasisOnSimplex" data-source-line="21" data-uid="ent0010" id="entity_BernsteinBasisOnSimplex"><rect fill="#F1F1F1" height="32" rx="2.5" ry="2.5" style="stroke:#181818;stroke-width:0.5;" width="211.6484" x="142.73" y="296.19"/><ellipse cx="157.73" cy="312.19" fill="#F1F1F1" rx="11" ry="11" style="stroke:#181818;stroke-width:1;"/><path d="M157.2144,312.7525 Q155.355,312.0494 154.6988,311.2837 Q154.0581,310.5025 154.0581,309.19 Q154.0581,307.5025 155.1363,306.5337 Q156.2144,305.565 158.0894,305.565 Q158.9488,305.565 159.7925,305.7681 Q160.6519,305.9556 161.4956,306.3462 L161.4956,308.7369 Q160.7144,308.1744 159.8863,307.8931 Q159.0738,307.5962 158.2769,307.5962 Q157.4019,307.5962 156.9175,307.9556 Q156.4488,308.315 156.4488,308.9712 Q156.4488,309.4869 156.7925,309.8306 Q157.1363,310.1587 158.23,310.565 L159.2925,310.9712 Q160.7769,311.5181 161.48,312.4244 Q162.1988,313.3306 162.1988,314.7056 Q162.1988,316.5806 161.0894,317.5025 Q159.98,318.4244 157.73,318.4244 Q156.8081,318.4244 155.8863,318.2056 Q154.9644,317.9869 154.105,317.565 L154.105,315.0337 Q155.0738,315.7212 155.9956,316.065 Q156.9175,316.4087 157.8081,316.4087 Q158.7144,316.4087 159.2144,316.0025 Q159.7144,315.5806 159.7144,314.8462 Q159.7144,314.2837 159.3706,313.8775 Q159.0425,313.4556 158.4175,313.2056 L157.2144,312.7525 Z " fill="#000000"/><text fill="#000000" font-family="sans-serif" font-size="14" lengthAdjust="spacing" textLength="179.6484" x="171.73" y="317.0367">BernsteinBasisOnSimplex</text></g><!--class ModalC0Basis--><g class="entity" data-entity="ModalC0Basis" data-source-line="22" data-uid="ent0011" id="entity_ModalC0Basis"><rect fill="#F1F1F1" height="56.2969" rx="2.5" ry="2.5" style="stroke:#181818;stroke-width:0.5;" width="129.3438" x="1341.88" y="284.04"/><ellipse cx="1356.88" cy="300.04" fill="#F1F1F1" rx="11" ry="11" style="stroke:#181818;stroke-width:1;"/><path d="M1356.3644,300.6025 Q1354.505,299.8994 1353.8488,299.1337 Q1353.2081,298.3525 1353.2081,297.04 Q1353.2081,295.3525 1354.2863,294.3837 Q1355.3644,293.415 1357.2394,293.415 Q1358.0988,293.415 1358.9425,293.6181 Q1359.8019,293.8056 1360.6456,294.1962 L1360.6456,296.5869 Q1359.8644,296.0244 1359.0363,295.7431 Q1358.2238,295.4462 1357.4269,295.4462 Q1356.5519,295.4462 1356.0675,295.8056 Q1355.5988,296.165 1355.5988,296.8212 Q1355.5988,297.3369 1355.9425,297.6806 Q1356.2863,298.0087 1357.38,298.415 L1358.4425,298.8212 Q1359.9269,299.3681 1360.63,300.2744 Q1361.3488,301.1806 1361.3488,302.5556 Q1361.3488,304.4306 1360.2394,305.3525 Q1359.13,306.2744 1356.88,306.2744 Q1355.9581,306.2744 1355.0363,306.0556 Q1354.1144,305.8369 1353.255,305.415 L1353.255,302.8837 Q1354.2238,303.5712 1355.1456,303.915 Q1356.0675,304.2587 1356.9581,304.2587 Q1357.8644,304.2587 1358.3644,303.8525 Q1358.8644,303.4306 1358.8644,302.6962 Q1358.8644,302.1337 1358.5206,301.7275 Q1358.1925,301.3056 1357.5675,301.0556 L1356.3644,300.6025 Z " fill="#000000"/><text fill="#000000" font-family="sans-serif" font-size="14" lengthAdjust="spacing" textLength="97.3438" x="1370.88" y="304.8867">ModalC0Basis</text><line style="stroke:#181818;stroke-width:0.5;" x1="1342.88" x2="1470.2238" y1="316.04" y2="316.04"/><ellipse cx="1352.88" cy="329.6884" fill="none" rx="3" ry="3" style="stroke:#038048;stroke-width:1;"/><text fill="#000000" font-family="sans-serif" font-size="14" lengthAdjust="spacing" textLength="74.8604" x="1361.88" y="333.0351">get_orders</text></g><!--class PLambdaBasis--><g class="entity" data-entity="PLambdaBasis" data-source-line="27" data-uid="ent0012" id="entity_PLambdaBasis"><rect fill="#F1F1F1" height="56.2969" rx="2.5" ry="2.5" style="stroke:#181818;stroke-width:0.5;" width="133.4727" x="188.82" y="159.59"/><ellipse cx="203.82" cy="175.59" fill="#F1F1F1" rx="11" ry="11" style="stroke:#181818;stroke-width:1;"/><path d="M203.3044,176.1525 Q201.445,175.4494 200.7888,174.6837 Q200.1481,173.9025 200.1481,172.59 Q200.1481,170.9025 201.2263,169.9337 Q202.3044,168.965 204.1794,168.965 Q205.0388,168.965 205.8825,169.1681 Q206.7419,169.3556 207.5856,169.7462 L207.5856,172.1369 Q206.8044,171.5744 205.9763,171.2931 Q205.1638,170.9962 204.3669,170.9962 Q203.4919,170.9962 203.0075,171.3556 Q202.5388,171.715 202.5388,172.3712 Q202.5388,172.8869 202.8825,173.2306 Q203.2263,173.5587 204.32,173.965 L205.3825,174.3712 Q206.8669,174.9181 207.57,175.8244 Q208.2888,176.7306 208.2888,178.1056 Q208.2888,179.9806 207.1794,180.9025 Q206.07,181.8244 203.82,181.8244 Q202.8981,181.8244 201.9763,181.6056 Q201.0544,181.3869 200.195,180.965 L200.195,178.4337 Q201.1638,179.1212 202.0856,179.465 Q203.0075,179.8087 203.8981,179.8087 Q204.8044,179.8087 205.3044,179.4025 Q205.8044,178.9806 205.8044,178.2462 Q205.8044,177.6837 205.4606,177.2775 Q205.1325,176.8556 204.5075,176.6056 L203.3044,176.1525 Z " fill="#000000"/><text fill="#000000" font-family="sans-serif" font-size="14" lengthAdjust="spacing" textLength="101.4727" x="217.82" y="180.4367">PLambdaBasis</text><line style="stroke:#181818;stroke-width:0.5;" x1="189.82" x2="321.2927" y1="191.59" y2="191.59"/><ellipse cx="199.82" cy="205.2384" fill="none" rx="3" ry="3" style="stroke:#038048;stroke-width:1;"/><text fill="#000000" font-family="sans-serif" font-size="14" lengthAdjust="spacing" textLength="89.0381" x="208.82" y="208.5851">print_indices</text></g><!--class PmLambdaBasis--><g class="entity" data-entity="PmLambdaBasis" data-source-line="30" data-uid="ent0013" id="entity_PmLambdaBasis"><rect fill="#F1F1F1" height="56.2969" rx="2.5" ry="2.5" style="stroke:#181818;stroke-width:0.5;" width="147.1104" x="7" y="159.59"/><ellipse cx="22" cy="175.59" fill="#F1F1F1" rx="11" ry="11" style="stroke:#181818;stroke-width:1;"/><path d="M21.4844,176.1525 Q19.625,175.4494 18.9688,174.6837 Q18.3281,173.9025 18.3281,172.59 Q18.3281,170.9025 19.4063,169.9337 Q20.4844,168.965 22.3594,168.965 Q23.2188,168.965 24.0625,169.1681 Q24.9219,169.3556 25.7656,169.7462 L25.7656,172.1369 Q24.9844,171.5744 24.1563,171.2931 Q23.3438,170.9962 22.5469,170.9962 Q21.6719,170.9962 21.1875,171.3556 Q20.7188,171.715 20.7188,172.3712 Q20.7188,172.8869 21.0625,173.2306 Q21.4063,173.5587 22.5,173.965 L23.5625,174.3712 Q25.0469,174.9181 25.75,175.8244 Q26.4688,176.7306 26.4688,178.1056 Q26.4688,179.9806 25.3594,180.9025 Q24.25,181.8244 22,181.8244 Q21.0781,181.8244 20.1563,181.6056 Q19.2344,181.3869 18.375,180.965 L18.375,178.4337 Q19.3438,179.1212 20.2656,179.465 Q21.1875,179.8087 22.0781,179.8087 Q22.9844,179.8087 23.4844,179.4025 Q23.9844,178.9806 23.9844,178.2462 Q23.9844,177.6837 23.6406,177.2775 Q23.3125,176.8556 22.6875,176.6056 L21.4844,176.1525 Z " fill="#000000"/><text fill="#000000" font-family="sans-serif" font-size="14" lengthAdjust="spacing" textLength="115.1104" x="36" y="180.4367">PmLambdaBasis</text><line style="stroke:#181818;stroke-width:0.5;" x1="8" x2="153.1104" y1="191.59" y2="191.59"/><ellipse cx="18" cy="205.2384" fill="none" rx="3" ry="3" style="stroke:#038048;stroke-width:1;"/><text fill="#000000" font-family="sans-serif" font-size="14" lengthAdjust="spacing" textLength="89.0381" x="27" y="208.5851">print_indices</text></g><g class="entity" data-entity="m1" data-source-line="43" data-uid="ent0022" id="entity_m1"><rect fill="#F1F1F1" height="20.2969" rx="2.5" ry="2.5" style="stroke:#181818;stroke-width:0.5;" width="154.6494" x="391.23" y="408.48"/><text fill="#000000" font-family="sans-serif" font-size="14" lengthAdjust="spacing" textLength="140.6494" x="398.23" y="423.4751">(&lt;:Polynomial)Basis</text></g><g class="entity" data-entity="m2" data-source-line="44" data-uid="ent0023" id="entity_m2"><rect fill="#F1F1F1" height="20.2969" rx="2.5" ry="2.5" style="stroke:#181818;stroke-width:0.5;" width="129.0898" x="600.01" y="408.48"/><text fill="#000000" font-family="sans-serif" font-size="14" lengthAdjust="spacing" textLength="115.0898" x="607.01" y="423.4751">FEEC_poly_basis</text></g><!--link PolynomialBasis to a1--><g class="link" data-entity-1="PolynomialBasis" data-entity-2="a1" data-source-line="11" data-uid="lnk5" id="link_PolynomialBasis_a1"><path codeLine="11" d="M632.66,43.3 C643.88,43.3 637.11,43.3 648.33,43.3" fill="none" id="PolynomialBasis-to-a1" style="stroke:#181818;stroke-width:1;"/><polygon fill="none" points="666.33,43.3,648.33,37.3,648.33,49.3,666.33,43.3" style="stroke:#181818;stroke-width:1;"/></g><!--reverse link PolynomialBasis to CartProdPolyBasis--><g class="link" data-entity-1="PolynomialBasis" data-entity-2="CartProdPolyBasis" data-source-line="34" data-uid="lnk14" id="link_PolynomialBasis_CartProdPolyBasis"><path codeLine="34" d="M543.56,101.3 C543.56,101.3 502.68,215.7 481.28,275.58" fill="none" id="PolynomialBasis-backto-CartProdPolyBasis" style="stroke:#181818;stroke-width:1;"/></g><!--reverse link PolynomialBasis to CompWiseTensorPolyBasis--><g class="link" data-entity-1="PolynomialBasis" data-entity-2="CompWiseTensorPolyBasis" data-source-line="35" data-uid="lnk15" id="link_PolynomialBasis_CompWiseTensorPolyBasis"><path codeLine="35" d="M543.56,101.3 C543.56,101.3 836.66,191.11 1069.56,267.89 C1096.99,276.93 1127.64,287.37 1151.96,295.74" fill="none" id="PolynomialBasis-backto-CompWiseTensorPolyBasis" style="stroke:#181818;stroke-width:1;"/></g><!--reverse link PolynomialBasis to RaviartThomasPolyBasis--><g class="link" data-entity-1="PolynomialBasis" data-entity-2="RaviartThomasPolyBasis" data-source-line="36" data-uid="lnk16" id="link_PolynomialBasis_RaviartThomasPolyBasis"><path codeLine="36" d="M543.56,101.3 C543.56,101.3 641.62,247.28 674.19,295.75" fill="none" id="PolynomialBasis-backto-RaviartThomasPolyBasis" style="stroke:#181818;stroke-width:1;"/></g><!--reverse link PolynomialBasis to NedelecPolyBasisOnSimplex--><g class="link" data-entity-1="PolynomialBasis" data-entity-2="NedelecPolyBasisOnSimplex" data-source-line="37" data-uid="lnk17" id="link_PolynomialBasis_NedelecPolyBasisOnSimplex"><path codeLine="37" d="M543.56,101.3 C543.56,101.3 816.9,247.28 907.66,295.75" fill="none" id="PolynomialBasis-backto-NedelecPolyBasisOnSimplex" style="stroke:#181818;stroke-width:1;"/></g><!--reverse link PolynomialBasis to BernsteinBasisOnSimplex--><g class="link" data-entity-1="PolynomialBasis" data-entity-2="BernsteinBasisOnSimplex" data-source-line="38" data-uid="lnk18" id="link_PolynomialBasis_BernsteinBasisOnSimplex"><path codeLine="38" d="M543.56,101.3 C543.56,101.3 338.37,247.28 270.25,295.75" fill="none" id="PolynomialBasis-backto-BernsteinBasisOnSimplex" style="stroke:#181818;stroke-width:1;"/></g><!--reverse link PolynomialBasis to ModalC0Basis--><g class="link" data-entity-1="PolynomialBasis" data-entity-2="ModalC0Basis" data-source-line="39" data-uid="lnk19" id="link_PolynomialBasis_ModalC0Basis"><path codeLine="39" d="M543.56,101.3 C543.56,101.3 991.68,144.75 1324.56,267.89 C1336.18,272.19 1348.23,277.82 1359.4,283.59" fill="none" id="PolynomialBasis-backto-ModalC0Basis" style="stroke:#181818;stroke-width:1;"/></g><!--reverse link PolynomialBasis to PmLambdaBasis--><g class="link" data-entity-1="PolynomialBasis" data-entity-2="PmLambdaBasis" data-source-line="40" data-uid="lnk20" id="link_PolynomialBasis_PmLambdaBasis"><path codeLine="40" d="M543.56,101.3 C543.56,101.3 334.77,122.63 171.56,159.59 C165.93,160.87 160.14,162.3 154.33,163.83" fill="none" id="PolynomialBasis-backto-PmLambdaBasis" style="stroke:#181818;stroke-width:1;"/></g><!--reverse link PolynomialBasis to PLambdaBasis--><g class="link" data-entity-1="PolynomialBasis" data-entity-2="PLambdaBasis" data-source-line="41" data-uid="lnk21" id="link_PolynomialBasis_PLambdaBasis"><path codeLine="41" d="M543.56,101.3 C543.56,101.3 407.82,141.57 322.71,166.82" fill="none" id="PolynomialBasis-backto-PLambdaBasis" style="stroke:#181818;stroke-width:1;"/></g><!--reverse link CartProdPolyBasis to m1--><g class="link" data-entity-1="CartProdPolyBasis" data-entity-2="m1" data-source-line="46" data-uid="lnk24" id="link_CartProdPolyBasis_m1"><path codeLine="46" d="M468.56,354.84 C468.56,375.88 468.56,394.92 468.56,408.22" fill="none" id="CartProdPolyBasis-backto-m1" style="stroke:#181818;stroke-width:1;"/><polygon fill="#181818" points="468.56,348.84,464.56,357.84,468.56,353.84,472.56,357.84,468.56,348.84" style="stroke:#181818;stroke-width:1;"/></g><!--reverse link PmLambdaBasis to BernsteinBasisOnSimplex--><g class="link" data-entity-1="PmLambdaBasis" data-entity-2="BernsteinBasisOnSimplex" data-source-line="47" data-uid="lnk25" id="link_PmLambdaBasis_BernsteinBasisOnSimplex"><path codeLine="47" d="M127.9566,223.2894 C161.6166,247.8294 200.02,275.81 227.38,295.75" fill="none" id="PmLambdaBasis-backto-BernsteinBasisOnSimplex" style="stroke:#181818;stroke-width:1;"/><polygon fill="none" points="118.26,216.22,120.7518,222.9869,127.9566,223.2894,125.4648,216.5225,118.26,216.22" style="stroke:#181818;stroke-width:1;"/></g><!--reverse link PLambdaBasis to BernsteinBasisOnSimplex--><g class="link" data-entity-1="PLambdaBasis" data-entity-2="BernsteinBasisOnSimplex" data-source-line="48" data-uid="lnk26" id="link_PLambdaBasis_BernsteinBasisOnSimplex"><path codeLine="48" d="M253.2965,228.2005 C251.8965,252.7405 250.58,275.81 249.44,295.75" fill="none" id="PLambdaBasis-backto-BernsteinBasisOnSimplex" style="stroke:#181818;stroke-width:1;"/><polygon fill="none" points="253.98,216.22,249.6448,221.9824,253.2965,228.2005,257.6318,222.4381,253.98,216.22" style="stroke:#181818;stroke-width:1;"/></g><!--reverse link CartProdPolyBasis to m2--><g class="link" data-entity-1="CartProdPolyBasis" data-entity-2="m2" data-source-line="49" data-uid="lnk27" id="link_CartProdPolyBasis_m2"><path codeLine="49" d="M540.7552,351.6616 C580.0152,372.5816 621.4,394.64 646.48,408" fill="none" id="CartProdPolyBasis-backto-m2" style="stroke:#181818;stroke-width:1;"/><polygon fill="#181818" points="535.46,348.84,541.5217,356.6025,539.8726,351.1913,545.2838,349.5422,535.46,348.84" style="stroke:#181818;stroke-width:1;"/></g><!--reverse link CompWiseTensorPolyBasis to m2--><g class="link" data-entity-1="CompWiseTensorPolyBasis" data-entity-2="m2" data-source-line="50" data-uid="lnk28" id="link_CompWiseTensorPolyBasis_m2"><path codeLine="50" d="M1151.7167,330.6826 C1126.8867,339.9226 1099.54,349.17 1069.56,356.48 C951.25,385.34 809.99,402.95 729.43,411.45" fill="none" id="CompWiseTensorPolyBasis-backto-m2" style="stroke:#181818;stroke-width:1;"/><polygon fill="#181818" points="1157.34,328.59,1147.51,327.98,1152.6539,330.3338,1150.3002,335.4777,1157.34,328.59" style="stroke:#181818;stroke-width:1;"/></g><!--reverse link RaviartThomasPolyBasis to m2--><g class="link" data-entity-1="RaviartThomasPolyBasis" data-entity-2="m2" data-source-line="51" data-uid="lnk29" id="link_RaviartThomasPolyBasis_m2"><path codeLine="51" d="M680.4725,334.4931 C676.2825,356.3931 669.85,389.98 666.38,408.09" fill="none" id="RaviartThomasPolyBasis-backto-m2" style="stroke:#181818;stroke-width:1;"/><polygon fill="#181818" points="681.6,328.6,675.98,336.688,680.6604,333.5109,683.8375,338.1913,681.6,328.6" style="stroke:#181818;stroke-width:1;"/></g><!--reverse link NedelecPolyBasisOnSimplex to m2--><g class="link" data-entity-1="NedelecPolyBasisOnSimplex" data-entity-2="m2" data-source-line="52" data-uid="lnk30" id="link_NedelecPolyBasisOnSimplex_m2"><path codeLine="52" d="M890.8187,330.7506 C833.7787,352.6506 736.56,389.98 689.41,408.09" fill="none" id="NedelecPolyBasisOnSimplex-backto-m2" style="stroke:#181818;stroke-width:1;"/><polygon fill="#181818" points="896.42,328.6,886.5843,328.0917,891.7522,330.3922,889.4517,335.5601,896.42,328.6" style="stroke:#181818;stroke-width:1;"/></g><!--reverse link PmLambdaBasis to m2--><g class="link" data-entity-1="PmLambdaBasis" data-entity-2="m2" data-source-line="53" data-uid="lnk31" id="link_PmLambdaBasis_m2"><path codeLine="53" d="M73.5485,222.2858 C67.2185,259.6758 63.65,319.97 100.56,356.48 C109.37,365.2 453.3,398.04 599.68,411.66" fill="none" id="PmLambdaBasis-backto-m2" style="stroke:#181818;stroke-width:1;"/><polygon fill="#181818" points="74.55,216.37,69.1038,224.576,73.7154,221.2999,76.9916,225.9114,74.55,216.37" style="stroke:#181818;stroke-width:1;"/></g><!--reverse link PLambdaBasis to m2--><g class="link" data-entity-1="PLambdaBasis" data-entity-2="m2" data-source-line="54" data-uid="lnk32" id="link_PLambdaBasis_m2"><path codeLine="54" d="M183.2754,216.1455 C159.2854,228.6055 140.16,243.59 126.56,267.89 C107.33,302.25 100.33,327.11 126.56,356.48 C134.38,365.25 458.35,397.64 599.71,411.39" fill="none" id="PLambdaBasis-backto-m2" style="stroke:#181818;stroke-width:1;"/><polygon fill="#181818" points="188.6,213.38,178.7693,213.9785,184.1628,215.6846,182.4567,221.0781,188.6,213.38" style="stroke:#181818;stroke-width:1;"/></g><!--SRC=[ZPFBRi8m44Nt_WgBLIi4AYmhDe2eLAaFr29r6KsIQN4RFpGs5GZuzvgKa11ijRjaxibS-qx6VWbbW43o3z8hSw-MICA1of0FsLBao54Qj-4IPOfa6NFw0vs7-9Pn3gbr19dZdV7nQKm4c-teTgwBZT9IGB7lSB0S1asyLYTWXIrxSTxrdHDDETBlAw5RaKhSng0lxDcUmO2FThq2trsltQDrCc-qyaPJ83SddH_W2ojS6wrGETjojwLRtKDByoOiBb1PJQTEDV02tyBxB9PQWWteJvXZWTb9ULQlGfe2rpKoGLBMeL0nu57dK4nlmd7POppi2CyVGAOvr73Na50k4IeN6LfFLg3yasJjMOrs_VvbhX4i4bqGZiGOPEEH1l5Ol46u6NMOE8ijWZG9fjDFF6p9LNCnhaknt0uvE25tizaqCHvAqbeUCdRv9uzwlSE7vpFKlXYzxN_1YDUGHUPPoU49LcfqPXLmVfEg6AZz0000]--></g></svg>