<?xml version="1.0" encoding="us-ascii" standalone="no"?><svg xmlns="http://www.w3.org/2000/svg" xmlns:xlink="http://www.w3.org/1999/xlink" contentStyleType="text/css" height="335px" preserveAspectRatio="none" style="width:1323px;height:335px;background:#FFFFFF;" version="1.1" viewBox="0 0 1323 335" width="1323px" zoomAndPan="magnify"><defs/><g><!--class a1--><g id="elem_a1"><rect codeLine="5" fill="#F1F1F1" height="32" id="a1" rx="2.5" ry="2.5" style="stroke:#181818;stroke-width:0.5;" width="231" x="725" y="27.3"/><ellipse cx="740" cy="43.3" fill="#A9DCDF" rx="11" ry="11" style="stroke:#181818;stroke-width:1.0;"/><path d="M740.1094,38.6437 L738.9531,43.7219 L741.2813,43.7219 L740.1094,38.6437 Z M738.625,36.4094 L741.6094,36.4094 L744.9688,48.8 L742.5156,48.8 L741.75,45.7375 L738.4688,45.7375 L737.7188,48.8 L735.2813,48.8 L738.625,36.4094 Z " fill="#000000"/><text fill="#000000" font-family="sans-serif" font-size="14" font-style="italic" lengthAdjust="spacing" textLength="199" x="754" y="48.1467">AbstractArray{&lt;:Polynomial}</text></g><!--class PolynomialBasis--><g id="elem_PolynomialBasis"><rect codeLine="6" fill="#F1F1F1" height="72.5938" id="PolynomialBasis" rx="2.5" ry="2.5" style="stroke:#181818;stroke-width:0.5;" width="142" x="528.5" y="7"/><ellipse cx="543.5" cy="23" fill="#A9DCDF" rx="11" ry="11" style="stroke:#181818;stroke-width:1.0;"/><path d="M543.6094,18.3438 L542.4531,23.4219 L544.7813,23.4219 L543.6094,18.3438 Z M542.125,16.1094 L545.1094,16.1094 L548.4688,28.5 L546.0156,28.5 L545.25,25.4375 L541.9688,25.4375 L541.2188,28.5 L538.7813,28.5 L542.125,16.1094 Z " fill="#000000"/><text fill="#000000" font-family="sans-serif" font-size="14" font-style="italic" lengthAdjust="spacing" textLength="110" x="557.5" y="27.8467">PolynomialBasis</text><line style="stroke:#181818;stroke-width:0.5;" x1="529.5" x2="669.5" y1="39" y2="39"/><ellipse cx="539.5" cy="52.6484" fill="none" rx="3" ry="3" style="stroke:#038048;stroke-width:1.0;"/><text fill="#000000" font-family="sans-serif" font-size="14" lengthAdjust="spacing" textLength="67" x="548.5" y="55.9951">get_order</text><ellipse cx="539.5" cy="68.9453" fill="none" rx="3" ry="3" style="stroke:#038048;stroke-width:1.0;"/><text fill="#000000" font-family="sans-serif" font-size="14" lengthAdjust="spacing" textLength="79" x="548.5" y="72.292">return_type</text></g><polygon fill="none" points="599.5,79.5938,606.5,99.5938,592.5,99.5938" style="stroke:#181818;stroke-width:1.0;"/><line style="stroke:#181818;stroke-width:1.0;" x1="599.5" x2="599.5" y1="99.5938" y2="101.3"/><line style="stroke:#181818;stroke-width:1.0;" x1="670.5" x2="690.82" y1="43.2993" y2="43.3"/><!--class CartProdPolyBasis--><g id="elem_CartProdPolyBasis"><rect codeLine="14" fill="#F1F1F1" height="72.5938" id="CartProdPolyBasis" rx="2.5" ry="2.5" style="stroke:#181818;stroke-width:0.5;" width="150" x="414.5" y="159.59"/><ellipse cx="429.5" cy="175.59" fill="#F1F1F1" rx="11" ry="11" style="stroke:#181818;stroke-width:1.0;"/><path d="M428.9844,176.1525 Q427.125,175.4494 426.4688,174.6837 Q425.8281,173.9025 425.8281,172.59 Q425.8281,170.9025 426.9063,169.9337 Q427.9844,168.965 429.8594,168.965 Q430.7188,168.965 431.5625,169.1681 Q432.4219,169.3556 433.2656,169.7462 L433.2656,172.1369 Q432.4844,171.5744 431.6563,171.2931 Q430.8438,170.9962 430.0469,170.9962 Q429.1719,170.9962 428.6875,171.3556 Q428.2188,171.715 428.2188,172.3712 Q428.2188,172.8869 428.5625,173.2306 Q428.9063,173.5587 430,173.965 L431.0625,174.3712 Q432.5469,174.9181 433.25,175.8244 Q433.9688,176.7306 433.9688,178.1056 Q433.9688,179.9806 432.8594,180.9025 Q431.75,181.8244 429.5,181.8244 Q428.5781,181.8244 427.6563,181.6056 Q426.7344,181.3869 425.875,180.965 L425.875,178.4337 Q426.8438,179.1212 427.7656,179.465 Q428.6875,179.8087 429.5781,179.8087 Q430.4844,179.8087 430.9844,179.4025 Q431.4844,178.9806 431.4844,178.2462 Q431.4844,177.6837 431.1406,177.2775 Q430.8125,176.8556 430.1875,176.6056 L428.9844,176.1525 Z " fill="#000000"/><text fill="#000000" font-family="sans-serif" font-size="14" lengthAdjust="spacing" textLength="118" x="443.5" y="180.4367">CartProdPolyBasis</text><line style="stroke:#181818;stroke-width:0.5;" x1="415.5" x2="563.5" y1="191.59" y2="191.59"/><ellipse cx="425.5" cy="205.2384" fill="none" rx="3" ry="3" style="stroke:#038048;stroke-width:1.0;"/><text fill="#000000" font-family="sans-serif" font-size="14" lengthAdjust="spacing" textLength="104" x="434.5" y="208.5851">get_exponents</text><ellipse cx="425.5" cy="221.5353" fill="none" rx="3" ry="3" style="stroke:#038048;stroke-width:1.0;"/><text fill="#000000" font-family="sans-serif" font-size="14" lengthAdjust="spacing" textLength="75" x="434.5" y="224.882">get_orders</text></g><!--class CompWiseTensorPolyBasis--><g id="elem_CompWiseTensorPolyBasis"><rect codeLine="18" fill="#F1F1F1" height="32" id="CompWiseTensorPolyBasis" rx="2.5" ry="2.5" style="stroke:#181818;stroke-width:0.5;" width="220" x="599.5" y="179.89"/><ellipse cx="614.5" cy="195.89" fill="#F1F1F1" rx="11" ry="11" style="stroke:#181818;stroke-width:1.0;"/><path d="M613.9844,196.4525 Q612.125,195.7494 611.4688,194.9838 Q610.8281,194.2025 610.8281,192.89 Q610.8281,191.2025 611.9063,190.2338 Q612.9844,189.265 614.8594,189.265 Q615.7188,189.265 616.5625,189.4681 Q617.4219,189.6556 618.2656,190.0463 L618.2656,192.4369 Q617.4844,191.8744 616.6563,191.5931 Q615.8438,191.2963 615.0469,191.2963 Q614.1719,191.2963 613.6875,191.6556 Q613.2188,192.015 613.2188,192.6713 Q613.2188,193.1869 613.5625,193.5306 Q613.9063,193.8588 615,194.265 L616.0625,194.6713 Q617.5469,195.2181 618.25,196.1244 Q618.9688,197.0306 618.9688,198.4056 Q618.9688,200.2806 617.8594,201.2025 Q616.75,202.1244 614.5,202.1244 Q613.5781,202.1244 612.6563,201.9056 Q611.7344,201.6869 610.875,201.265 L610.875,198.7338 Q611.8438,199.4213 612.7656,199.765 Q613.6875,200.1088 614.5781,200.1088 Q615.4844,200.1088 615.9844,199.7025 Q616.4844,199.2806 616.4844,198.5463 Q616.4844,197.9838 616.1406,197.5775 Q615.8125,197.1556 615.1875,196.9056 L613.9844,196.4525 Z " fill="#000000"/><text fill="#000000" font-family="sans-serif" font-size="14" lengthAdjust="spacing" textLength="188" x="628.5" y="200.7367">CompWiseTensorPolyBasis</text></g><!--class RaviartThomasPolyBasis--><g id="elem_RaviartThomasPolyBasis"><rect codeLine="19" fill="#F1F1F1" height="32" id="RaviartThomasPolyBasis" rx="2.5" ry="2.5" style="stroke:#181818;stroke-width:0.5;" width="199" x="855" y="179.89"/><ellipse cx="870" cy="195.89" fill="#F1F1F1" rx="11" ry="11" style="stroke:#181818;stroke-width:1.0;"/><path d="M869.4844,196.4525 Q867.625,195.7494 866.9688,194.9838 Q866.3281,194.2025 866.3281,192.89 Q866.3281,191.2025 867.4063,190.2338 Q868.4844,189.265 870.3594,189.265 Q871.2188,189.265 872.0625,189.4681 Q872.9219,189.6556 873.7656,190.0463 L873.7656,192.4369 Q872.9844,191.8744 872.1563,191.5931 Q871.3438,191.2963 870.5469,191.2963 Q869.6719,191.2963 869.1875,191.6556 Q868.7188,192.015 868.7188,192.6713 Q868.7188,193.1869 869.0625,193.5306 Q869.4063,193.8588 870.5,194.265 L871.5625,194.6713 Q873.0469,195.2181 873.75,196.1244 Q874.4688,197.0306 874.4688,198.4056 Q874.4688,200.2806 873.3594,201.2025 Q872.25,202.1244 870,202.1244 Q869.0781,202.1244 868.1563,201.9056 Q867.2344,201.6869 866.375,201.265 L866.375,198.7338 Q867.3438,199.4213 868.2656,199.765 Q869.1875,200.1088 870.0781,200.1088 Q870.9844,200.1088 871.4844,199.7025 Q871.9844,199.2806 871.9844,198.5463 Q871.9844,197.9838 871.6406,197.5775 Q871.3125,197.1556 870.6875,196.9056 L869.4844,196.4525 Z " fill="#000000"/><text fill="#000000" font-family="sans-serif" font-size="14" lengthAdjust="spacing" textLength="167" x="884" y="200.7367">RaviartThomasPolyBasis</text></g><!--class NedelecPolyBasisOnSimplex--><g id="elem_NedelecPolyBasisOnSimplex"><rect codeLine="20" fill="#F1F1F1" height="32" id="NedelecPolyBasisOnSimplex" rx="2.5" ry="2.5" style="stroke:#181818;stroke-width:0.5;" width="227" x="1089" y="179.89"/><ellipse cx="1104" cy="195.89" fill="#F1F1F1" rx="11" ry="11" style="stroke:#181818;stroke-width:1.0;"/><path d="M1103.4844,196.4525 Q1101.625,195.7494 1100.9688,194.9838 Q1100.3281,194.2025 1100.3281,192.89 Q1100.3281,191.2025 1101.4063,190.2338 Q1102.4844,189.265 1104.3594,189.265 Q1105.2188,189.265 1106.0625,189.4681 Q1106.9219,189.6556 1107.7656,190.0463 L1107.7656,192.4369 Q1106.9844,191.8744 1106.1563,191.5931 Q1105.3438,191.2963 1104.5469,191.2963 Q1103.6719,191.2963 1103.1875,191.6556 Q1102.7188,192.015 1102.7188,192.6713 Q1102.7188,193.1869 1103.0625,193.5306 Q1103.4063,193.8588 1104.5,194.265 L1105.5625,194.6713 Q1107.0469,195.2181 1107.75,196.1244 Q1108.4688,197.0306 1108.4688,198.4056 Q1108.4688,200.2806 1107.3594,201.2025 Q1106.25,202.1244 1104,202.1244 Q1103.0781,202.1244 1102.1563,201.9056 Q1101.2344,201.6869 1100.375,201.265 L1100.375,198.7338 Q1101.3438,199.4213 1102.2656,199.765 Q1103.1875,200.1088 1104.0781,200.1088 Q1104.9844,200.1088 1105.4844,199.7025 Q1105.9844,199.2806 1105.9844,198.5463 Q1105.9844,197.9838 1105.6406,197.5775 Q1105.3125,197.1556 1104.6875,196.9056 L1103.4844,196.4525 Z " fill="#000000"/><text fill="#000000" font-family="sans-serif" font-size="14" lengthAdjust="spacing" textLength="195" x="1118" y="200.7367">NedelecPolyBasisOnSimplex</text></g><!--class BernsteinBasisOnSimplex--><g id="elem_BernsteinBasisOnSimplex"><rect codeLine="21" fill="#F1F1F1" height="32" id="BernsteinBasisOnSimplex" rx="2.5" ry="2.5" style="stroke:#181818;stroke-width:0.5;" width="209" x="171" y="179.89"/><ellipse cx="186" cy="195.89" fill="#F1F1F1" rx="11" ry="11" style="stroke:#181818;stroke-width:1.0;"/><path d="M185.4844,196.4525 Q183.625,195.7494 182.9688,194.9838 Q182.3281,194.2025 182.3281,192.89 Q182.3281,191.2025 183.4063,190.2338 Q184.4844,189.265 186.3594,189.265 Q187.2188,189.265 188.0625,189.4681 Q188.9219,189.6556 189.7656,190.0463 L189.7656,192.4369 Q188.9844,191.8744 188.1563,191.5931 Q187.3438,191.2963 186.5469,191.2963 Q185.6719,191.2963 185.1875,191.6556 Q184.7188,192.015 184.7188,192.6713 Q184.7188,193.1869 185.0625,193.5306 Q185.4063,193.8588 186.5,194.265 L187.5625,194.6713 Q189.0469,195.2181 189.75,196.1244 Q190.4688,197.0306 190.4688,198.4056 Q190.4688,200.2806 189.3594,201.2025 Q188.25,202.1244 186,202.1244 Q185.0781,202.1244 184.1563,201.9056 Q183.2344,201.6869 182.375,201.265 L182.375,198.7338 Q183.3438,199.4213 184.2656,199.765 Q185.1875,200.1088 186.0781,200.1088 Q186.9844,200.1088 187.4844,199.7025 Q187.9844,199.2806 187.9844,198.5463 Q187.9844,197.9838 187.6406,197.5775 Q187.3125,197.1556 186.6875,196.9056 L185.4844,196.4525 Z " fill="#000000"/><text fill="#000000" font-family="sans-serif" font-size="14" lengthAdjust="spacing" textLength="177" x="200" y="200.7367">BernsteinBasisOnSimplex</text></g><!--class ModalC0Basis--><g id="elem_ModalC0Basis"><rect codeLine="22" fill="#F1F1F1" height="56.2969" id="ModalC0Basis" rx="2.5" ry="2.5" style="stroke:#181818;stroke-width:0.5;" width="129" x="7" y="167.74"/><ellipse cx="22" cy="183.74" fill="#F1F1F1" rx="11" ry="11" style="stroke:#181818;stroke-width:1.0;"/><path d="M21.4844,184.3025 Q19.625,183.5994 18.9688,182.8337 Q18.3281,182.0525 18.3281,180.74 Q18.3281,179.0525 19.4063,178.0837 Q20.4844,177.115 22.3594,177.115 Q23.2188,177.115 24.0625,177.3181 Q24.9219,177.5056 25.7656,177.8962 L25.7656,180.2869 Q24.9844,179.7244 24.1563,179.4431 Q23.3438,179.1462 22.5469,179.1462 Q21.6719,179.1462 21.1875,179.5056 Q20.7188,179.865 20.7188,180.5212 Q20.7188,181.0369 21.0625,181.3806 Q21.4063,181.7087 22.5,182.115 L23.5625,182.5212 Q25.0469,183.0681 25.75,183.9744 Q26.4688,184.8806 26.4688,186.2556 Q26.4688,188.1306 25.3594,189.0525 Q24.25,189.9744 22,189.9744 Q21.0781,189.9744 20.1563,189.7556 Q19.2344,189.5369 18.375,189.115 L18.375,186.5837 Q19.3438,187.2712 20.2656,187.615 Q21.1875,187.9587 22.0781,187.9587 Q22.9844,187.9587 23.4844,187.5525 Q23.9844,187.1306 23.9844,186.3962 Q23.9844,185.8337 23.6406,185.4275 Q23.3125,185.0056 22.6875,184.7556 L21.4844,184.3025 Z " fill="#000000"/><text fill="#000000" font-family="sans-serif" font-size="14" lengthAdjust="spacing" textLength="97" x="36" y="188.5867">ModalC0Basis</text><line style="stroke:#181818;stroke-width:0.5;" x1="8" x2="135" y1="199.74" y2="199.74"/><ellipse cx="18" cy="213.3884" fill="none" rx="3" ry="3" style="stroke:#038048;stroke-width:1.0;"/><text fill="#000000" font-family="sans-serif" font-size="14" lengthAdjust="spacing" textLength="75" x="27" y="216.7351">get_orders</text></g><g id="elem_m1"><rect fill="#F1F1F1" height="20.2969" style="stroke:#181818;stroke-width:0.5;" width="151" x="413" y="300.33"/><text fill="#000000" font-family="sans-serif" font-size="14" lengthAdjust="spacing" textLength="137" x="420" y="315.3251">(&lt;:Polynomial)Basis</text></g><g id="elem_m2"><rect fill="#F1F1F1" height="36.5938" style="stroke:#181818;stroke-width:0.5;" width="222" x="598.5" y="292.19"/><text fill="#000000" font-family="sans-serif" font-size="14" lengthAdjust="spacing" textLength="181" x="619" y="307.1851">QGrad[&lt;:Polynomial]Basis</text><text fill="#000000" font-family="sans-serif" font-size="14" lengthAdjust="spacing" textLength="208" x="605.5" y="323.482">QCurlGrad[&lt;:Polynomial]Basis</text></g><g id="elem_m4"><rect fill="#F1F1F1" height="20.2969" style="stroke:#181818;stroke-width:0.5;" width="220" x="855.5" y="300.33"/><text fill="#000000" font-family="sans-serif" font-size="14" lengthAdjust="spacing" textLength="206" x="862.5" y="315.3251">PCurlGrad[&lt;:Polynomial]Basis</text></g><g id="elem_m5"><rect fill="#F1F1F1" height="20.2969" style="stroke:#181818;stroke-width:0.5;" width="159" x="1123" y="300.33"/><text fill="#000000" font-family="sans-serif" font-size="14" lengthAdjust="spacing" textLength="145" x="1130" y="315.3251">PGradMonomialBasis</text></g><!--link PolynomialBasis to a1--><g id="link_PolynomialBasis_a1"><path codeLine="11" d="M690.82,43.3 C702.12,43.3 695.42,43.3 706.73,43.3 " fill="none" id="PolynomialBasis-to-a1" style="stroke:#181818;stroke-width:1.0;"/><polygon fill="none" points="724.73,43.3,706.73,37.3,706.73,49.3,724.73,43.3" style="stroke:#181818;stroke-width:1.0;"/></g><!--reverse link PolynomialBasis to CartProdPolyBasis--><g id="link_PolynomialBasis_CartProdPolyBasis"><path codeLine="27" d="M599.5,101.3 C599.5,101.3 562.49,132.79 531.4,159.24 " fill="none" id="PolynomialBasis-backto-CartProdPolyBasis" style="stroke:#181818;stroke-width:1.0;"/></g><!--reverse link PolynomialBasis to CompWiseTensorPolyBasis--><g id="link_PolynomialBasis_CompWiseTensorPolyBasis"><path codeLine="28" d="M599.5,101.3 C599.5,101.3 660.09,152.85 691.34,179.43 " fill="none" id="PolynomialBasis-backto-CompWiseTensorPolyBasis" style="stroke:#181818;stroke-width:1.0;"/></g><!--reverse link PolynomialBasis to RaviartThomasPolyBasis--><g id="link_PolynomialBasis_RaviartThomasPolyBasis"><path codeLine="29" d="M599.5,101.3 C599.5,101.3 733.64,121.57 837.5,151.59 C864.55,159.41 894.3,170.45 917.03,179.43 " fill="none" id="PolynomialBasis-backto-RaviartThomasPolyBasis" style="stroke:#181818;stroke-width:1.0;"/></g><!--reverse link PolynomialBasis to NedelecPolyBasisOnSimplex--><g id="link_PolynomialBasis_NedelecPolyBasisOnSimplex"><path codeLine="30" d="M599.5,101.3 C599.5,101.3 865.29,107.06 1071.5,151.59 C1102.99,158.39 1137.55,170 1163.27,179.48 " fill="none" id="PolynomialBasis-backto-NedelecPolyBasisOnSimplex" style="stroke:#181818;stroke-width:1.0;"/></g><!--reverse link PolynomialBasis to BernsteinBasisOnSimplex--><g id="link_PolynomialBasis_BernsteinBasisOnSimplex"><path codeLine="31" d="M599.5,101.3 C599.5,101.3 486.09,124.91 397.5,151.59 C369.95,159.89 339.45,170.71 315.84,179.46 " fill="none" id="PolynomialBasis-backto-BernsteinBasisOnSimplex" style="stroke:#181818;stroke-width:1.0;"/></g><!--reverse link PolynomialBasis to ModalC0Basis--><g id="link_PolynomialBasis_ModalC0Basis"><path codeLine="32" d="M599.5,101.3 C599.5,101.3 344.13,92.82 153.5,151.59 C140.88,155.48 127.94,161.32 116.17,167.46 " fill="none" id="PolynomialBasis-backto-ModalC0Basis" style="stroke:#181818;stroke-width:1.0;"/></g><!--reverse link CartProdPolyBasis to m1--><g id="link_CartProdPolyBasis_m1"><path codeLine="38" d="M489.1269,238.5098 C488.9169,262.2198 488.71,285.61 488.58,300.27 " fill="none" id="CartProdPolyBasis-backto-m1" style="stroke:#181818;stroke-width:1.0;"/><polygon fill="#181818" points="489.18,232.51,485.1004,241.4742,489.1357,237.5098,493.1001,241.5451,489.18,232.51" style="stroke:#181818;stroke-width:1.0;"/></g><!--reverse link CompWiseTensorPolyBasis to m2--><g id="link_CompWiseTensorPolyBasis_m2"><path codeLine="39" d="M709.5,218.07 C709.5,238.84 709.5,270.03 709.5,291.95 " fill="none" id="CompWiseTensorPolyBasis-backto-m2" style="stroke:#181818;stroke-width:1.0;"/><polygon fill="#181818" points="709.5,212.07,705.5,221.07,709.5,217.07,713.5,221.07,709.5,212.07" style="stroke:#181818;stroke-width:1.0;"/></g><!--reverse link RaviartThomasPolyBasis to m4--><g id="link_RaviartThomasPolyBasis_m4"><path codeLine="40" d="M956.5633,218.0416 C958.8733,241.6916 962.68,280.66 964.58,300.11 " fill="none" id="RaviartThomasPolyBasis-backto-m4" style="stroke:#181818;stroke-width:1.0;"/><polygon fill="#181818" points="955.98,212.07,952.8739,221.4162,956.4661,217.0463,960.836,220.6385,955.98,212.07" style="stroke:#181818;stroke-width:1.0;"/></g><!--reverse link NedelecPolyBasisOnSimplex to m5--><g id="link_NedelecPolyBasisOnSimplex_m5"><path codeLine="41" d="M1202.5,218.07 C1202.5,241.72 1202.5,280.66 1202.5,300.11 " fill="none" id="NedelecPolyBasisOnSimplex-backto-m5" style="stroke:#181818;stroke-width:1.0;"/><polygon fill="#181818" points="1202.5,212.07,1198.5,221.07,1202.5,217.07,1206.5,221.07,1202.5,212.07" style="stroke:#181818;stroke-width:1.0;"/></g><!--SRC=[XP91Jm8n48Nl_HKD9utPH0XS31VXO3oWe1WFQiZ03b3TjfjfLzaW_ztTXMmtInjlRT-NDvqtOxw4Ie50yWtfBBrNMoHXGQsGzzXMnCXHfZRd4kKIoJ1czGPj0V4zunoMnXAiBE_SdawtH93lXpTJdUHAIm79eSF1SEWsSQUEm0XJUN5-LJWlDCL8nokXpKWjR9vYyN1W1mPTFloD4bpRgEtH-bbHA2iAlIYnrYHBzgmIxbAjK5dJAcwgOhN5MClqLHYSepAQQYS7FC6t0BBphPPWFFe3nfZWgbOUrREGQO8xXuoGbB4eL0YOw1YIyRK_BNDAXxLZBRAApYBmKw4klN2WOoyRxjwBXvBmmirK6DFBJonNyQAvVPULMAsWxDR8x8uWVcjo7nNthcRZZ9A0UdJfrIxJVzc-OqjkeXij78a1ErlHOHJh7nML_mrCnI4zvf-58_eiE0473TWV]--></g></svg>
