<?xml version="1.0" encoding="us-ascii" standalone="no"?><svg xmlns="http://www.w3.org/2000/svg" xmlns:xlink="http://www.w3.org/1999/xlink" contentStyleType="text/css" height="182px" preserveAspectRatio="none" style="width:651px;height:182px;background:#FFFFFF;" version="1.1" viewBox="0 0 651 182" width="651px" zoomAndPan="magnify"><defs/><g><!--class Field--><g id="elem_Field"><rect codeLine="5" fill="#F1F1F1" height="32" id="Field" rx="2.5" ry="2.5" style="stroke:#181818;stroke-width:0.5;" width="64" x="436.5" y="19.15"/><ellipse cx="451.5" cy="35.15" fill="#A9DCDF" rx="11" ry="11" style="stroke:#181818;stroke-width:1.0;"/><path d="M451.6094,30.4938 L450.4531,35.5719 L452.7813,35.5719 L451.6094,30.4938 Z M450.125,28.2594 L453.1094,28.2594 L456.4688,40.65 L454.0156,40.65 L453.25,37.5875 L449.9688,37.5875 L449.2188,40.65 L446.7813,40.65 L450.125,28.2594 Z " fill="#000000"/><text fill="#000000" font-family="sans-serif" font-size="14" font-style="italic" lengthAdjust="spacing" textLength="32" x="465.5" y="39.9967">Field</text></g><!--class Polynomial--><g id="elem_Polynomial"><rect codeLine="6" fill="#F1F1F1" height="56.2969" id="Polynomial" rx="2.5" ry="2.5" style="stroke:#181818;stroke-width:0.5;" width="116" x="265.5" y="7"/><ellipse cx="285.45" cy="23" fill="#A9DCDF" rx="11" ry="11" style="stroke:#181818;stroke-width:1.0;"/><path d="M285.5594,18.3438 L284.4031,23.4219 L286.7313,23.4219 L285.5594,18.3438 Z M284.075,16.1094 L287.0594,16.1094 L290.4188,28.5 L287.9656,28.5 L287.2,25.4375 L283.9188,25.4375 L283.1688,28.5 L280.7313,28.5 L284.075,16.1094 Z " fill="#000000"/><text fill="#000000" font-family="sans-serif" font-size="14" font-style="italic" lengthAdjust="spacing" textLength="73" x="300.55" y="27.8467">Polynomial</text><line style="stroke:#181818;stroke-width:0.5;" x1="266.5" x2="380.5" y1="39" y2="39"/><ellipse cx="276.5" cy="52.6484" fill="none" rx="3" ry="3" style="stroke:#038048;stroke-width:1.0;"/><text fill="#000000" font-family="sans-serif" font-size="14" lengthAdjust="spacing" textLength="90" x="285.5" y="55.9951">isHierarchical</text></g><polygon fill="none" points="323.5,63.2969,330.5,83.2969,316.5,83.2969" style="stroke:#181818;stroke-width:1.0;"/><line style="stroke:#181818;stroke-width:1.0;" x1="323.5" x2="323.5" y1="83.2969" y2="85.15"/><line style="stroke:#181818;stroke-width:1.0;" x1="381.5" x2="401.95" y1="35.1496" y2="35.15"/><!--class Monomial--><g id="elem_Monomial"><rect codeLine="13" fill="#F1F1F1" height="32" id="Monomial" rx="2.5" ry="2.5" style="stroke:#181818;stroke-width:0.5;" width="98" x="546.5" y="143.3"/><ellipse cx="561.5" cy="159.3" fill="#F1F1F1" rx="11" ry="11" style="stroke:#181818;stroke-width:1.0;"/><path d="M560.9844,159.8625 Q559.125,159.1594 558.4688,158.3938 Q557.8281,157.6125 557.8281,156.3 Q557.8281,154.6125 558.9063,153.6438 Q559.9844,152.675 561.8594,152.675 Q562.7188,152.675 563.5625,152.8781 Q564.4219,153.0656 565.2656,153.4563 L565.2656,155.8469 Q564.4844,155.2844 563.6563,155.0031 Q562.8438,154.7063 562.0469,154.7063 Q561.1719,154.7063 560.6875,155.0656 Q560.2188,155.425 560.2188,156.0813 Q560.2188,156.5969 560.5625,156.9406 Q560.9063,157.2688 562,157.675 L563.0625,158.0813 Q564.5469,158.6281 565.25,159.5344 Q565.9688,160.4406 565.9688,161.8156 Q565.9688,163.6906 564.8594,164.6125 Q563.75,165.5344 561.5,165.5344 Q560.5781,165.5344 559.6563,165.3156 Q558.7344,165.0969 557.875,164.675 L557.875,162.1438 Q558.8438,162.8313 559.7656,163.175 Q560.6875,163.5188 561.5781,163.5188 Q562.4844,163.5188 562.9844,163.1125 Q563.4844,162.6906 563.4844,161.9563 Q563.4844,161.3938 563.1406,160.9875 Q562.8125,160.5656 562.1875,160.3156 L560.9844,159.8625 Z " fill="#000000"/><text fill="#000000" font-family="sans-serif" font-size="14" lengthAdjust="spacing" textLength="66" x="575.5" y="164.1467">Monomial</text></g><!--class Legendre--><g id="elem_Legendre"><rect codeLine="14" fill="#F1F1F1" height="32" id="Legendre" rx="2.5" ry="2.5" style="stroke:#181818;stroke-width:0.5;" width="98" x="413.5" y="143.3"/><ellipse cx="428.5" cy="159.3" fill="#F1F1F1" rx="11" ry="11" style="stroke:#181818;stroke-width:1.0;"/><path d="M427.9844,159.8625 Q426.125,159.1594 425.4688,158.3938 Q424.8281,157.6125 424.8281,156.3 Q424.8281,154.6125 425.9063,153.6438 Q426.9844,152.675 428.8594,152.675 Q429.7188,152.675 430.5625,152.8781 Q431.4219,153.0656 432.2656,153.4563 L432.2656,155.8469 Q431.4844,155.2844 430.6563,155.0031 Q429.8438,154.7063 429.0469,154.7063 Q428.1719,154.7063 427.6875,155.0656 Q427.2188,155.425 427.2188,156.0813 Q427.2188,156.5969 427.5625,156.9406 Q427.9063,157.2688 429,157.675 L430.0625,158.0813 Q431.5469,158.6281 432.25,159.5344 Q432.9688,160.4406 432.9688,161.8156 Q432.9688,163.6906 431.8594,164.6125 Q430.75,165.5344 428.5,165.5344 Q427.5781,165.5344 426.6563,165.3156 Q425.7344,165.0969 424.875,164.675 L424.875,162.1438 Q425.8438,162.8313 426.7656,163.175 Q427.6875,163.5188 428.5781,163.5188 Q429.4844,163.5188 429.9844,163.1125 Q430.4844,162.6906 430.4844,161.9563 Q430.4844,161.3938 430.1406,160.9875 Q429.8125,160.5656 429.1875,160.3156 L427.9844,159.8625 Z " fill="#000000"/><text fill="#000000" font-family="sans-serif" font-size="14" lengthAdjust="spacing" textLength="66" x="442.5" y="164.1467">Legendre</text></g><!--class Chebyshev--><g id="elem_Chebyshev"><rect codeLine="15" fill="#F1F1F1" height="32" id="Chebyshev" rx="2.5" ry="2.5" style="stroke:#181818;stroke-width:0.5;" width="109" x="269" y="143.3"/><ellipse cx="284" cy="159.3" fill="#F1F1F1" rx="11" ry="11" style="stroke:#181818;stroke-width:1.0;"/><path d="M283.4844,159.8625 Q281.625,159.1594 280.9688,158.3938 Q280.3281,157.6125 280.3281,156.3 Q280.3281,154.6125 281.4063,153.6438 Q282.4844,152.675 284.3594,152.675 Q285.2188,152.675 286.0625,152.8781 Q286.9219,153.0656 287.7656,153.4563 L287.7656,155.8469 Q286.9844,155.2844 286.1563,155.0031 Q285.3438,154.7063 284.5469,154.7063 Q283.6719,154.7063 283.1875,155.0656 Q282.7188,155.425 282.7188,156.0813 Q282.7188,156.5969 283.0625,156.9406 Q283.4063,157.2688 284.5,157.675 L285.5625,158.0813 Q287.0469,158.6281 287.75,159.5344 Q288.4688,160.4406 288.4688,161.8156 Q288.4688,163.6906 287.3594,164.6125 Q286.25,165.5344 284,165.5344 Q283.0781,165.5344 282.1563,165.3156 Q281.2344,165.0969 280.375,164.675 L280.375,162.1438 Q281.3438,162.8313 282.2656,163.175 Q283.1875,163.5188 284.0781,163.5188 Q284.9844,163.5188 285.4844,163.1125 Q285.9844,162.6906 285.9844,161.9563 Q285.9844,161.3938 285.6406,160.9875 Q285.3125,160.5656 284.6875,160.3156 L283.4844,159.8625 Z " fill="#000000"/><text fill="#000000" font-family="sans-serif" font-size="14" lengthAdjust="spacing" textLength="77" x="298" y="164.1467">Chebyshev</text></g><!--class ModalC0--><g id="elem_ModalC0"><rect codeLine="16" fill="#F1F1F1" height="32" id="ModalC0" rx="2.5" ry="2.5" style="stroke:#181818;stroke-width:0.5;" width="92" x="141.5" y="143.3"/><ellipse cx="156.5" cy="159.3" fill="#F1F1F1" rx="11" ry="11" style="stroke:#181818;stroke-width:1.0;"/><path d="M155.9844,159.8625 Q154.125,159.1594 153.4688,158.3938 Q152.8281,157.6125 152.8281,156.3 Q152.8281,154.6125 153.9063,153.6438 Q154.9844,152.675 156.8594,152.675 Q157.7188,152.675 158.5625,152.8781 Q159.4219,153.0656 160.2656,153.4563 L160.2656,155.8469 Q159.4844,155.2844 158.6563,155.0031 Q157.8438,154.7063 157.0469,154.7063 Q156.1719,154.7063 155.6875,155.0656 Q155.2188,155.425 155.2188,156.0813 Q155.2188,156.5969 155.5625,156.9406 Q155.9063,157.2688 157,157.675 L158.0625,158.0813 Q159.5469,158.6281 160.25,159.5344 Q160.9688,160.4406 160.9688,161.8156 Q160.9688,163.6906 159.8594,164.6125 Q158.75,165.5344 156.5,165.5344 Q155.5781,165.5344 154.6563,165.3156 Q153.7344,165.0969 152.875,164.675 L152.875,162.1438 Q153.8438,162.8313 154.7656,163.175 Q155.6875,163.5188 156.5781,163.5188 Q157.4844,163.5188 157.9844,163.1125 Q158.4844,162.6906 158.4844,161.9563 Q158.4844,161.3938 158.1406,160.9875 Q157.8125,160.5656 157.1875,160.3156 L155.9844,159.8625 Z " fill="#000000"/><text fill="#000000" font-family="sans-serif" font-size="14" lengthAdjust="spacing" textLength="60" x="170.5" y="164.1467">ModalC0</text></g><!--class Bernstein--><g id="elem_Bernstein"><rect codeLine="17" fill="#F1F1F1" height="32" id="Bernstein" rx="2.5" ry="2.5" style="stroke:#181818;stroke-width:0.5;" width="99" x="7" y="143.3"/><ellipse cx="22" cy="159.3" fill="#F1F1F1" rx="11" ry="11" style="stroke:#181818;stroke-width:1.0;"/><path d="M21.4844,159.8625 Q19.625,159.1594 18.9688,158.3938 Q18.3281,157.6125 18.3281,156.3 Q18.3281,154.6125 19.4063,153.6438 Q20.4844,152.675 22.3594,152.675 Q23.2188,152.675 24.0625,152.8781 Q24.9219,153.0656 25.7656,153.4563 L25.7656,155.8469 Q24.9844,155.2844 24.1563,155.0031 Q23.3438,154.7063 22.5469,154.7063 Q21.6719,154.7063 21.1875,155.0656 Q20.7188,155.425 20.7188,156.0813 Q20.7188,156.5969 21.0625,156.9406 Q21.4063,157.2688 22.5,157.675 L23.5625,158.0813 Q25.0469,158.6281 25.75,159.5344 Q26.4688,160.4406 26.4688,161.8156 Q26.4688,163.6906 25.3594,164.6125 Q24.25,165.5344 22,165.5344 Q21.0781,165.5344 20.1563,165.3156 Q19.2344,165.0969 18.375,164.675 L18.375,162.1438 Q19.3438,162.8313 20.2656,163.175 Q21.1875,163.5188 22.0781,163.5188 Q22.9844,163.5188 23.4844,163.1125 Q23.9844,162.6906 23.9844,161.9563 Q23.9844,161.3938 23.6406,160.9875 Q23.3125,160.5656 22.6875,160.3156 L21.4844,159.8625 Z " fill="#000000"/><text fill="#000000" font-family="sans-serif" font-size="14" lengthAdjust="spacing" textLength="67" x="36" y="164.1467">Bernstein</text></g><!--link Polynomial to Field--><g id="link_Polynomial_Field"><path codeLine="10" d="M401.95,35.15 C413.3,35.15 406.65,35.15 418,35.15 " fill="none" id="Polynomial-to-Field" style="stroke:#181818;stroke-width:1.0;"/><polygon fill="none" points="436,35.15,418,29.15,418,41.15,436,35.15" style="stroke:#181818;stroke-width:1.0;"/></g><!--reverse link Polynomial to Monomial--><g id="link_Polynomial_Monomial"><path codeLine="20" d="M323.5,85.15 C323.5,85.15 438.49,108.9 528.5,135.3 C536.29,137.58 544.51,140.22 552.43,142.87 " fill="none" id="Polynomial-backto-Monomial" style="stroke:#181818;stroke-width:1.0;"/></g><!--reverse link Polynomial to Legendre--><g id="link_Polynomial_Legendre"><path codeLine="21" d="M323.5,85.15 C323.5,85.15 392.6,121.52 433.36,142.97 " fill="none" id="Polynomial-backto-Legendre" style="stroke:#181818;stroke-width:1.0;"/></g><!--reverse link Polynomial to Chebyshev--><g id="link_Polynomial_Chebyshev"><path codeLine="22" d="M323.5,85.15 C323.5,85.15 323.5,121.72 323.5,143.14 " fill="none" id="Polynomial-backto-Chebyshev" style="stroke:#181818;stroke-width:1.0;"/></g><!--reverse link Polynomial to ModalC0--><g id="link_Polynomial_ModalC0"><path codeLine="23" d="M323.5,85.15 C323.5,85.15 255.89,121.52 216.01,142.97 " fill="none" id="Polynomial-backto-ModalC0" style="stroke:#181818;stroke-width:1.0;"/></g><!--reverse link Polynomial to Bernstein--><g id="link_Polynomial_Bernstein"><path codeLine="24" d="M323.5,85.15 C323.5,85.15 211.36,109.26 123.5,135.3 C115.72,137.61 107.5,140.25 99.58,142.91 " fill="none" id="Polynomial-backto-Bernstein" style="stroke:#181818;stroke-width:1.0;"/></g><!--SRC=[POxBYi9044Nt_HMr7m8owrafY0CZ-0kLv9ekfX-XkXM2-kysAdQ8stEVwL_2oCgU1esdyJTOg6GE7UZRMEb1y6EUoCEtq6HCZWDoCT75476RidANQIjm_HmSefj2zCBkOIJwahGJA6jdfMDNsCtSp2D7FzV6uPYRMMenL5fFfNKVN-gR_650w1MLR2pQALcSvx6UtMPLmHeQKeQ4Si7ChfOZJHrP2k-jfL0dFxkUoqjU3zm1]--></g></svg>